<svg xmlns="http://www.w3.org/2000/svg" width="46" height="46" viewBox="0 0 46 46">
  <g id="组_5162" data-name="组 5162" transform="translate(-518 -1901)">
    <path id="路径_10546" data-name="路径 10546" d="M511.492,153.48" transform="translate(37.336 1758.877)" fill="#2e2fff"/>
    <path id="路径_10547" data-name="路径 10547" d="M164.761,411.643" transform="translate(367.6 1512.92)" fill="#2e2fff"/>
    <g id="control-3" transform="translate(517 1900)">
      <path id="路径_12005" data-name="路径 12005" d="M46,24.272v-.544A2.728,2.728,0,0,0,43.272,21h-.408a2.767,2.767,0,0,1-2.628-2,16.872,16.872,0,0,0-1.215-2.942,2.773,2.773,0,0,1,.443-3.277l.285-.285a2.728,2.728,0,0,0,0-3.858l-.385-.385a2.728,2.728,0,0,0-3.858,0l-.285.285a2.773,2.773,0,0,1-3.277.443A16.873,16.873,0,0,0,29,7.763a2.767,2.767,0,0,1-2-2.628V4.728A2.728,2.728,0,0,0,24.272,2h-.544A2.728,2.728,0,0,0,21,4.728v.408a2.767,2.767,0,0,1-2,2.628,16.873,16.873,0,0,0-2.942,1.215,2.773,2.773,0,0,1-3.277-.443l-.285-.285a2.728,2.728,0,0,0-3.858,0l-.385.385a2.728,2.728,0,0,0,0,3.858l.285.285a2.773,2.773,0,0,1,.443,3.277A16.873,16.873,0,0,0,7.763,19a2.767,2.767,0,0,1-2.628,2H4.728A2.728,2.728,0,0,0,2,23.728v.544A2.728,2.728,0,0,0,4.728,27h.408a2.767,2.767,0,0,1,2.628,2,16.872,16.872,0,0,0,1.215,2.942,2.773,2.773,0,0,1-.443,3.277l-.285.285a2.728,2.728,0,0,0,0,3.858l.385.385a2.728,2.728,0,0,0,3.858,0l.285-.285a2.773,2.773,0,0,1,3.277-.443A16.872,16.872,0,0,0,19,40.237a2.767,2.767,0,0,1,2,2.628v.408A2.728,2.728,0,0,0,23.728,46h.544A2.728,2.728,0,0,0,27,43.272v-.408a2.767,2.767,0,0,1,2-2.628,16.872,16.872,0,0,0,2.942-1.215,2.773,2.773,0,0,1,3.277.443l.285.285a2.728,2.728,0,0,0,3.858,0l.385-.385a2.728,2.728,0,0,0,0-3.858l-.285-.285a2.773,2.773,0,0,1-.443-3.277A16.871,16.871,0,0,0,40.237,29a2.767,2.767,0,0,1,2.628-2h.408A2.728,2.728,0,0,0,46,24.272Z" fill="none" stroke="#3d3fea" stroke-linecap="round" stroke-linejoin="round" stroke-miterlimit="10" stroke-width="2"/>
      <circle id="椭圆_563" data-name="椭圆 563" cx="8" cy="8" r="8" transform="translate(16 16)" fill="none" stroke="#3d3fea" stroke-linecap="round" stroke-linejoin="round" stroke-miterlimit="10" stroke-width="2"/>
    </g>
  </g>
</svg>
