<svg xmlns="http://www.w3.org/2000/svg" xmlns:xlink="http://www.w3.org/1999/xlink" width="400" height="200" viewBox="0 0 400 200">
  <defs>
    <clipPath id="clip-path">
      <rect id="矩形_4372" data-name="矩形 4372" width="400" height="200" transform="translate(448 7223)" fill="none" stroke="#707070" stroke-width="1"/>
    </clipPath>
  </defs>
  <g id="组_5199" data-name="组 5199" transform="translate(-448 -7223)" clip-path="url(#clip-path)">
    <g id="组_5198" data-name="组 5198" transform="translate(448 7277.122)">
      <path id="路径_12123" data-name="路径 12123" d="M1038.957,513.334h-.017l-.119.19a20.9,20.9,0,0,1-7.15,6.827,19.139,19.139,0,0,1-9.789,2.831,19.542,19.542,0,0,1-14.814-6.76,22.84,22.84,0,0,1-5.931-16.15,22.487,22.487,0,0,1,6.121-15.318,18.912,18.912,0,0,1,14.233-6.415c7.487-.067,13.135,3.021,17.265,9.449l.12.186h.115l4.868-3.009a26.987,26.987,0,0,0-8.04-8.546,25.09,25.09,0,0,0-13.934-4.214,24.437,24.437,0,0,0-18.6,7.927c-5.181,5.334-7.807,12.135-7.807,20.213a29.22,29.22,0,0,0,7.734,20.275,24.3,24.3,0,0,0,18.417,8.358h.266a25.477,25.477,0,0,0,21.951-12.822Z" transform="translate(-739.976 -454.756)" fill="#172d72"/>
      <path id="路径_12124" data-name="路径 12124" d="M1097.776,473.432h-6.612l-24.577,55.013h7.843l7.6-18.285h.012l2.684-5.714h-.011l9.894-23.218,9.7,23.218h-13.919l-2.536,5.714h18.714l7.666,18.285h6.914Z" transform="translate(-762.441 -455.081)" fill="#172d72"/>
      <path id="路径_12125" data-name="路径 12125" d="M1184.361,478.5a19.714,19.714,0,0,0-13.65-4.963h-17.8v54.942h6.487v-21.52h0v-5.783h0V479.459h11.6a12.88,12.88,0,0,1,8.456,2.933,9.438,9.438,0,0,1,3.843,7.281,9.661,9.661,0,0,1-3.447,8.378,12.2,12.2,0,0,1-8.5,3.123h-6.717v5.783h7.772a17.384,17.384,0,0,0,12.105-4.614,15.111,15.111,0,0,0,5.2-11.423A15.549,15.549,0,0,0,1184.361,478.5Z" transform="translate(-789.71 -455.114)" fill="#172d72"/>
      <rect id="矩形_4370" data-name="矩形 4370" width="6.484" height="6.484" transform="translate(153.103 19.435)" fill="#172d72"/>
      <rect id="矩形_4371" data-name="矩形 4371" width="6.484" height="39.483" transform="translate(153.103 33.965)" fill="#172d72"/>
      <path id="路径_12126" data-name="路径 12126" d="M969.147,530.454V513.5a21.561,21.561,0,0,0-21.686-21.464,20.413,20.413,0,0,0-14.5,6.534,20.922,20.922,0,0,0-5.885,14.854,21.339,21.339,0,0,0,6.385,15.424,19.81,19.81,0,0,0,15.229,6.1,20.215,20.215,0,0,0,14.323-6.426v2.69m0,0a12.34,12.34,0,0,1-4.226,9.324,14.134,14.134,0,0,1-9.9,4.031,14.494,14.494,0,0,1-8.822-2.944,13.521,13.521,0,0,1-4.676-5.494L930.421,539a19.041,19.041,0,0,0,5.184,6.267,21.3,21.3,0,0,0,12.629,4.454q.464.017.923.018a21.31,21.31,0,0,0,13.569-4.824,15.919,15.919,0,0,0,6.421-12.925v-1.537m-6.276-16.544a15.234,15.234,0,0,1-4.382,10.541,13.4,13.4,0,0,1-10.167,4.368,14.227,14.227,0,0,1-10.526-4.375,14.7,14.7,0,0,1-4.516-10.6,14.937,14.937,0,0,1,4.108-10.745,14.2,14.2,0,0,1,10.181-4.923c.264-.012.524-.018.783-.018a13.309,13.309,0,0,1,10.138,4.528A14.851,14.851,0,0,1,962.871,513.909Z" transform="translate(-718.369 -460.956)" fill="#172d72"/>
      <path id="路径_12127" data-name="路径 12127" d="M814.4,478.5a19.713,19.713,0,0,0-13.65-4.963h-17.8v54.942h6.487v-21.52h0v-5.783h0V479.459h11.6a12.879,12.879,0,0,1,8.456,2.933,9.437,9.437,0,0,1,3.843,7.281,9.66,9.66,0,0,1-3.447,8.378,12.2,12.2,0,0,1-8.5,3.123h-6.717v5.783h7.772a17.384,17.384,0,0,0,12.105-4.614,15.108,15.108,0,0,0,5.2-11.423A15.546,15.546,0,0,0,814.4,478.5Z" transform="translate(-672.839 -455.114)" fill="#172d72"/>
      <path id="路径_12128" data-name="路径 12128" d="M884.108,492.725a17.529,17.529,0,0,0-13,5.317,18.186,18.186,0,0,0-5.17,13.2v23.215H872.2V510.682a11.356,11.356,0,0,1,3.52-8.391,11.5,11.5,0,0,1,8.391-3.52,11.2,11.2,0,0,1,8.25,3.52,11.4,11.4,0,0,1,3.59,8.391v23.776H902.2V511.243a18.185,18.185,0,0,0-5.17-13.2A17.445,17.445,0,0,0,884.108,492.725Z" transform="translate(-699.057 -461.176)" fill="#172d72"/>
      <g id="组_5197" data-name="组 5197" transform="translate(0 0)">
        <g id="组_5196" data-name="组 5196">
          <path id="路径_12129" data-name="路径 12129" d="M667.87,472.56l-40.327-11.34a4.368,4.368,0,0,0-3.817.7,4.236,4.236,0,0,0-1.731,3.427v73.285A4.248,4.248,0,0,0,623.651,542a4.366,4.366,0,0,0,2.689.925,4.458,4.458,0,0,0,1.018-.118l40.328-9.476h0a4.291,4.291,0,0,0,3.344-4.175V476.689A4.321,4.321,0,0,0,667.87,472.56Z" transform="translate(-621.995 -451.17)" fill="#172d72"/>
          <path id="路径_12130" data-name="路径 12130" d="M701.487,465.39a4.321,4.321,0,0,0-3.155-4.117L647,446.776a4.37,4.37,0,0,0-3.819.7,4.239,4.239,0,0,0-1.733,3.428v55.609a4.246,4.246,0,0,0,1.66,3.371,4.367,4.367,0,0,0,2.685.922,4.428,4.428,0,0,0,1.028-.121l51.388-12.2a4.29,4.29,0,0,0,3.334-4.181Z" transform="translate(-628.14 -446.607)" fill="#00aeef"/>
          <path id="路径_12131" data-name="路径 12131" d="M674.016,473.645l-32.567-9.158v47.672a4.246,4.246,0,0,0,1.66,3.371,4.367,4.367,0,0,0,2.685.922,4.428,4.428,0,0,0,1.028-.121l30.354-7.2V477.774A4.321,4.321,0,0,0,674.016,473.645Z" transform="translate(-628.14 -452.255)" fill="#3d3fea"/>
        </g>
      </g>
    </g>
  </g>
</svg>
