<svg xmlns="http://www.w3.org/2000/svg" xmlns:xlink="http://www.w3.org/1999/xlink" width="400" height="200" viewBox="0 0 400 200">
  <defs>
    <clipPath id="clip-path">
      <rect id="矩形_4383" data-name="矩形 4383" width="400" height="200" transform="translate(6515 2417)" fill="none" stroke="#707070" stroke-width="1"/>
    </clipPath>
  </defs>
  <g id="蒙版组_106" data-name="蒙版组 106" transform="translate(-6515 -2417)" clip-path="url(#clip-path)">
    <g id="Logo_juiceFS_h" transform="translate(6507 2469.675)">
      <g id="logo_graphic" transform="translate(8 8.325)">
        <g id="logo" transform="translate(0)">
          <path id="Fill-1" d="M138.558,5.811l-.582-.591a16.3,16.3,0,0,0-23.292,0l-5.875,5.961c.312.3,2.428,2.36,4.795,4.762l7.484,7.595a17.75,17.75,0,0,1,0,24.816,17.135,17.135,0,0,1-24.456,0L57.272,8.416a64.4,64.4,0,0,0-5.051-4.238C45.7-.665,37.8-1.848,28.5,7.586l-3.495,3.546L79.162,66.08a41.617,41.617,0,0,0,59.4,0,43.11,43.11,0,0,0,0-60.269" transform="translate(16.971 -0.325)" fill="#91d2bd" fill-rule="evenodd"/>
          <g id="Group-5" transform="translate(0 0)">
            <path id="Fill-3" d="M143.065.237H107.705a13.574,13.574,0,0,0-8.968,3.058q-1.34,1.147-2.6,2.428L54.207,48.265a17.136,17.136,0,0,1-24.457,0,17.752,17.752,0,0,1,0-24.816l.069-.067L41.979,11.044C50.135,2.769,55.84.126,60.583.4c-.31-.056-.629-.112-.964-.167H26.951A20.554,20.554,0,0,0,12.282,5.723a43.109,43.109,0,0,0,0,60.269,41.617,41.617,0,0,0,59.4,0l59.977-60.86A16.282,16.282,0,0,1,143.374.245c-.2-.008-.309-.008-.309-.008" transform="translate(0 -0.237)" fill="#0e9155" fill-rule="evenodd"/>
          </g>
        </g>
      </g>
      <path id="JuiceFS" d="M137.263,21.647h8.587V51.715a12.6,12.6,0,0,1-4.057,9.87,14.768,14.768,0,0,1-10.254,3.644q-6.728,0-10.652-3.275T117.11,52.3l.059-.177h8.38q0,3.393,1.623,4.942a6.062,6.062,0,0,0,4.367,1.549,5.267,5.267,0,0,0,4.057-1.844,7.268,7.268,0,0,0,1.667-5.06Zm35.291,38.359a10.72,10.72,0,0,1-3.747,3.865A11.051,11.051,0,0,1,155.69,62q-2.847-3.231-2.847-10.047V32.683h8.587V52.01q0,3.482,1.18,5a4.139,4.139,0,0,0,3.482,1.52,8.586,8.586,0,0,0,3.541-.664,5.969,5.969,0,0,0,2.42-1.962V32.683h8.616V64.609h-7.347Zm23.665,4.6H187.6V32.683h8.616Zm0-39.569H187.6V18.578h8.616ZM216.7,58.619a5.078,5.078,0,0,0,3.688-1.343,4.76,4.76,0,0,0,1.387-3.585h7.819l.089.177a9.945,9.945,0,0,1-3.644,8.1,13.754,13.754,0,0,1-9.339,3.261q-7.141,0-11.006-4.515t-3.865-11.6v-.885a17.315,17.315,0,0,1,3.851-11.6q3.851-4.544,10.991-4.544a13.409,13.409,0,0,1,9.516,3.364,11.174,11.174,0,0,1,3.5,8.852l-.059.177h-7.849a6.234,6.234,0,0,0-1.357-4.116,4.6,4.6,0,0,0-3.747-1.638,5,5,0,0,0-4.824,2.656,14.627,14.627,0,0,0-1.4,6.846v.885a14.573,14.573,0,0,0,1.4,6.89A5.042,5.042,0,0,0,216.7,58.619Zm32.015,6.61q-6.9,0-11.036-4.426a15.826,15.826,0,0,1-4.131-11.242V48.38a17.465,17.465,0,0,1,3.91-11.714,12.979,12.979,0,0,1,10.49-4.574q6.462,0,10.032,3.895t3.57,10.534v4.692H242.486l-.059.177a8.333,8.333,0,0,0,2.11,5.193,6.577,6.577,0,0,0,5.09,2.036,16.576,16.576,0,0,0,4.751-.575,21.835,21.835,0,0,0,4.131-1.815l2.331,5.311a15.92,15.92,0,0,1-5.1,2.641A22.212,22.212,0,0,1,248.712,65.229Zm-.767-26.5a4.486,4.486,0,0,0-3.777,1.829,9.525,9.525,0,0,0-1.711,4.81l.089.148h10.564v-.767a6.911,6.911,0,0,0-1.284-4.382A4.626,4.626,0,0,0,247.945,38.732Zm45.943,8.026h-18V64.609h-8.616V21.647H296.9v6.639H275.888V40.118h18ZM325.342,53.4a4.987,4.987,0,0,0-1.756-3.983,17.761,17.761,0,0,0-6.152-2.833q-7.672-2.213-11.6-5.252a9.952,9.952,0,0,1-3.924-8.321,10.307,10.307,0,0,1,4.5-8.631q4.5-3.349,11.493-3.349,7.082,0,11.537,3.762a11.262,11.262,0,0,1,4.308,9.28l-.059.177h-8.351a6.269,6.269,0,0,0-1.992-4.824,7.922,7.922,0,0,0-5.592-1.844,8.264,8.264,0,0,0-5.341,1.534,4.835,4.835,0,0,0-1.888,3.924,4.212,4.212,0,0,0,2.021,3.585,27.954,27.954,0,0,0,6.978,2.965q7.111,1.977,10.77,5.223a10.852,10.852,0,0,1,3.659,8.528,10.212,10.212,0,0,1-4.352,8.7q-4.352,3.187-11.493,3.187a20.981,20.981,0,0,1-12.246-3.615,11.289,11.289,0,0,1-5.075-10.136l.059-.177h8.38q0,3.836,2.346,5.621a10.579,10.579,0,0,0,6.536,1.785,8.6,8.6,0,0,0,5.37-1.446A4.648,4.648,0,0,0,325.342,53.4Z" transform="translate(74.042 6.958)" fill="#0d9155" fill-rule="evenodd"/>
    </g>
  </g>
</svg>
