<?xml version="1.0" encoding="utf-8"?>
<!-- Generator: Adobe Illustrator 25.1.0, SVG Export Plug-In . SVG Version: 6.00 Build 0)  -->
<svg version="1.1" id="图层_1" xmlns="http://www.w3.org/2000/svg" xmlns:xlink="http://www.w3.org/1999/xlink" x="0px" y="0px"
	 viewBox="0 0 1207 719" style="enable-background:new 0 0 1207 719;" xml:space="preserve">
<style type="text/css">
	.st0{fill:#666666;}
	.st1{fill:#FFFFFF;}
	.st2{fill:#EECECD;}
	.st3{fill:#D8D3E7;}
	.st4{fill:#F8E6D0;}
	.st5{fill:#DCE9D5;}
	.st6{fill:#D3E2F1;}
	.st7{fill:#EFEFEF;}
	.st8{fill:#D3E0E3;}
	.st9{fill:#E6D2DC;}
	.st10{fill:#96CC7D;fill-opacity:0.53;}
</style>
<path class="st0" d="M265,717.4H1V181.5h264V717.4z M3,715.4h260V183.5H3V715.4z"/>
<path class="st0" d="M263.9,180.5H0v93.1h263.9V180.5z"/>
<path class="st1" d="M102.2,215.8v2.8H95v20.1h-3.2v-20.1h-7.2v-2.8H102.2z M108.4,238.6h-3.1v-17.2h3.1V238.6z M106.9,218.4
	c-0.6,0-1-0.2-1.4-0.5c-0.4-0.4-0.6-0.9-0.6-1.5c0-0.6,0.2-1.1,0.6-1.5c0.4-0.4,0.9-0.6,1.4-0.6c0.5,0,1,0.2,1.4,0.6
	c0.4,0.4,0.6,0.8,0.6,1.5c0,0.6-0.2,1.1-0.6,1.5C107.9,218.2,107.4,218.4,106.9,218.4z M130.8,215.8c-0.7,0.7-1.5,1.6-2.3,2.5
	c-0.9,0.9-1.8,1.8-2.7,2.8c-0.9,0.9-1.8,1.9-2.8,2.8c-0.9,0.9-1.8,1.8-2.6,2.6c0.9,0.7,1.9,1.5,3,2.4s2.1,2,3.1,3.1
	c1,1.1,2,2.2,2.8,3.4c0.9,1.1,1.7,2.2,2.2,3.3h-3.8c-0.7-1-1.4-2.1-2.3-3.1c-0.9-1.1-1.8-2.1-2.7-3c-0.9-1-1.9-1.9-2.9-2.7
	c-1-0.8-1.9-1.5-2.8-2.1v10.9h-3.2v-22.9h3.2v10.1c0.8-0.7,1.6-1.5,2.5-2.4c0.9-0.9,1.8-1.8,2.7-2.8s1.7-1.8,2.5-2.6
	c0.8-0.9,1.5-1.6,2-2.2H130.8z M153.8,215.8c-0.8,2.4-1.6,4.7-2.4,6.7c-0.7,2-1.5,4-2.2,5.8c-0.7,1.8-1.5,3.6-2.2,5.3
	c-0.7,1.7-1.4,3.3-2.2,5h-3c-0.7-1.6-1.5-3.3-2.2-5c-0.7-1.7-1.4-3.5-2.2-5.3c-0.7-1.8-1.5-3.8-2.2-5.8c-0.8-2.1-1.6-4.3-2.4-6.7
	h3.5c1.2,3.5,2.4,6.8,3.5,10c1.1,3.2,2.3,6.2,3.5,9c1.2-2.8,2.4-5.8,3.5-9c1.1-3.2,2.3-6.6,3.5-10.1H153.8z M164.8,220.5
	c1.3-0.5,2.5-1.1,3.7-1.8c1.2-0.8,2.3-1.7,3.3-2.9h2.2v22.9h-3.1V220c-0.3,0.2-0.6,0.5-1,0.8c-0.4,0.3-0.8,0.5-1.3,0.8
	c-0.4,0.2-0.9,0.5-1.4,0.7c-0.5,0.2-1,0.4-1.4,0.6L164.8,220.5z"/>
<path class="st0" d="M578.9,717.4H315V181.5h263.9V717.4z M317,715.4h259.9V183.5H317V715.4z"/>
<path class="st0" d="M577.9,180.5H314v93.1h263.9V180.5z"/>
<path class="st1" d="M416.2,215.8v2.8H409v20.1h-3.2v-20.1h-7.2v-2.8H416.2z M422.4,238.6h-3.1v-17.2h3.1V238.6z M420.9,218.4
	c-0.6,0-1-0.2-1.4-0.5c-0.4-0.4-0.6-0.9-0.6-1.5c0-0.6,0.2-1.1,0.6-1.5c0.4-0.4,0.9-0.6,1.4-0.6c0.5,0,1,0.2,1.4,0.6
	c0.4,0.4,0.6,0.8,0.6,1.5c0,0.6-0.2,1.1-0.6,1.5C421.9,218.2,421.4,218.4,420.9,218.4z M444.8,215.8c-0.7,0.7-1.5,1.6-2.3,2.5
	c-0.9,0.9-1.8,1.8-2.7,2.8c-0.9,0.9-1.8,1.9-2.8,2.8c-0.9,0.9-1.8,1.8-2.6,2.6c0.9,0.7,1.9,1.5,3,2.4s2.1,2,3.1,3.1
	c1,1.1,2,2.2,2.8,3.4c0.9,1.1,1.6,2.2,2.2,3.3h-3.8c-0.7-1-1.4-2.1-2.3-3.1c-0.9-1.1-1.8-2.1-2.7-3c-0.9-1-1.9-1.9-2.9-2.7
	c-1-0.8-1.9-1.5-2.8-2.1v10.9h-3.2v-22.9h3.2v10.1c0.8-0.7,1.6-1.5,2.5-2.4c0.9-0.9,1.8-1.8,2.7-2.8s1.7-1.8,2.5-2.6
	c0.8-0.9,1.5-1.6,2-2.2H444.8z M467.8,215.8c-0.8,2.4-1.6,4.7-2.4,6.7c-0.7,2-1.5,4-2.2,5.8c-0.7,1.8-1.5,3.6-2.2,5.3
	c-0.7,1.7-1.4,3.3-2.2,5h-3c-0.7-1.6-1.5-3.3-2.2-5c-0.7-1.7-1.4-3.5-2.2-5.3c-0.7-1.8-1.5-3.8-2.2-5.8c-0.8-2.1-1.6-4.3-2.4-6.7
	h3.5c1.2,3.5,2.4,6.8,3.5,10c1.1,3.2,2.3,6.2,3.5,9c1.2-2.8,2.4-5.8,3.5-9c1.1-3.2,2.3-6.6,3.5-10.1H467.8z M491.1,221.6
	c0,0.8-0.2,1.6-0.5,2.3c-0.3,0.7-0.7,1.5-1.3,2.2c-0.5,0.7-1.1,1.4-1.8,2.1c-0.7,0.7-1.3,1.4-2,2c-0.4,0.4-0.8,0.8-1.3,1.3
	c-0.5,0.5-0.9,1-1.4,1.6s-0.8,1.1-1.1,1.6c-0.3,0.5-0.4,0.9-0.4,1.3h10.5v2.6H478c0-0.1,0-0.3,0-0.4c0-0.1,0-0.3,0-0.4
	c0-1,0.2-2,0.5-2.9c0.4-0.9,0.8-1.7,1.4-2.5c0.6-0.8,1.2-1.5,1.8-2.2c0.7-0.7,1.4-1.4,2-2c0.6-0.5,1.1-1,1.6-1.6
	c0.5-0.5,0.9-1,1.3-1.6c0.4-0.5,0.7-1.1,0.9-1.6c0.2-0.6,0.4-1.1,0.4-1.7c0-0.7-0.1-1.2-0.3-1.7c-0.2-0.5-0.5-0.8-0.8-1.2
	c-0.4-0.3-0.8-0.5-1.3-0.7c-0.5-0.2-1-0.2-1.5-0.2c-0.6,0-1.2,0.1-1.7,0.3c-0.5,0.2-1,0.4-1.4,0.6c-0.4,0.2-0.8,0.5-1.1,0.7
	c-0.3,0.2-0.5,0.4-0.7,0.6l-1.5-2.2c0.2-0.2,0.5-0.5,0.9-0.8c0.4-0.3,0.9-0.6,1.4-0.9c0.5-0.3,1.2-0.5,1.8-0.7
	c0.7-0.2,1.4-0.3,2.2-0.3c2.4,0,4.2,0.6,5.4,1.7C490.5,218,491.1,219.6,491.1,221.6z"/>
<path class="st0" d="M893,717.4H629V181.5h264V717.4z M631,715.4h260V183.5H631V715.4z"/>
<path class="st0" d="M891.9,180.5H628v93.1h263.9V180.5z"/>
<path class="st1" d="M730.2,215.8v2.8H723v20.1h-3.2v-20.1h-7.2v-2.8H730.2z M736.4,238.6h-3.1v-17.2h3.1V238.6z M734.9,218.4
	c-0.5,0-1-0.2-1.4-0.5c-0.4-0.4-0.6-0.9-0.6-1.5c0-0.6,0.2-1.1,0.6-1.5c0.4-0.4,0.9-0.6,1.4-0.6s1,0.2,1.4,0.6
	c0.4,0.4,0.6,0.8,0.6,1.5c0,0.6-0.2,1.1-0.6,1.5C735.9,218.2,735.4,218.4,734.9,218.4z M758.8,215.8c-0.7,0.7-1.5,1.6-2.3,2.5
	c-0.9,0.9-1.8,1.8-2.7,2.8c-0.9,0.9-1.8,1.9-2.8,2.8c-0.9,0.9-1.8,1.8-2.6,2.6c0.9,0.7,1.9,1.5,3,2.4c1.1,1,2.1,2,3.1,3.1
	c1,1.1,2,2.2,2.8,3.4c0.9,1.1,1.7,2.2,2.2,3.3h-3.8c-0.7-1-1.4-2.1-2.3-3.1c-0.9-1.1-1.8-2.1-2.7-3c-0.9-1-1.9-1.9-2.9-2.7
	c-1-0.8-1.9-1.5-2.8-2.1v10.9h-3.2v-22.9h3.2v10.1c0.8-0.7,1.6-1.5,2.5-2.4c0.9-0.9,1.8-1.8,2.7-2.8s1.7-1.8,2.5-2.6
	c0.8-0.9,1.5-1.6,2-2.2H758.8z M781.8,215.8c-0.8,2.4-1.6,4.7-2.4,6.7c-0.7,2-1.5,4-2.2,5.8c-0.7,1.8-1.5,3.6-2.2,5.3
	c-0.7,1.7-1.4,3.3-2.2,5h-3c-0.7-1.6-1.5-3.3-2.2-5c-0.7-1.7-1.4-3.5-2.2-5.3c-0.7-1.8-1.5-3.8-2.2-5.8c-0.8-2.1-1.6-4.3-2.4-6.7
	h3.5c1.2,3.5,2.4,6.8,3.5,10c1.1,3.2,2.3,6.2,3.5,9c1.2-2.8,2.4-5.8,3.5-9c1.1-3.2,2.3-6.6,3.5-10.1H781.8z M797.2,236.4
	c2,0,3.4-0.4,4.2-1.2c0.9-0.8,1.3-1.8,1.3-3.1c0-0.8-0.2-1.5-0.5-2.1c-0.4-0.6-0.8-1-1.4-1.4c-0.6-0.4-1.2-0.6-2-0.7
	c-0.7-0.2-1.5-0.2-2.3-0.2h-0.8v-2.5h1.1c0.5,0,1.1-0.1,1.7-0.2c0.6-0.1,1.1-0.3,1.6-0.6s0.9-0.7,1.2-1.2c0.3-0.5,0.5-1.1,0.5-1.9
	c0-0.6-0.1-1.1-0.3-1.6c-0.2-0.4-0.5-0.8-0.9-1.1c-0.4-0.3-0.8-0.5-1.3-0.6c-0.5-0.1-1-0.2-1.5-0.2c-1.1,0-2,0.2-2.7,0.5
	c-0.7,0.3-1.3,0.6-1.8,1L792,217c0.3-0.2,0.6-0.4,1-0.6c0.4-0.2,0.9-0.4,1.4-0.6c0.5-0.2,1-0.3,1.6-0.4c0.6-0.1,1.2-0.2,1.8-0.2
	c1.2,0,2.3,0.2,3.1,0.5c0.9,0.3,1.6,0.7,2.2,1.3c0.6,0.5,1,1.2,1.3,1.9c0.3,0.7,0.4,1.5,0.4,2.4c0,1.2-0.3,2.2-1,3.1
	c-0.7,0.8-1.5,1.5-2.5,1.9c0.6,0.2,1.2,0.4,1.7,0.8s1,0.7,1.4,1.3c0.4,0.5,0.7,1.1,1,1.7c0.3,0.7,0.4,1.4,0.4,2.2
	c0,1-0.2,1.9-0.5,2.8c-0.3,0.8-0.9,1.6-1.6,2.2c-0.7,0.6-1.6,1.1-2.7,1.5c-1.1,0.4-2.4,0.5-3.8,0.5c-0.6,0-1.2,0-1.8-0.1
	c-0.6-0.1-1.2-0.2-1.7-0.3c-0.5-0.1-1-0.3-1.4-0.4c-0.4-0.1-0.7-0.2-0.9-0.3l0.6-2.7c0.4,0.2,1,0.4,1.8,0.7
	C794.9,236.2,795.9,236.4,797.2,236.4z"/>
<path class="st0" d="M1206.9,717.4H943V181.5h263.9V717.4z M945,715.4h259.9V183.5H945V715.4z"/>
<path class="st0" d="M1205.9,180.5H942v93.1h263.9V180.5z"/>
<path class="st1" d="M1044.2,215.8v2.8h-7.2v20.1h-3.2v-20.1h-7.2v-2.8H1044.2z M1050.4,238.6h-3.1v-17.2h3.1V238.6z M1048.8,218.4
	c-0.5,0-1-0.2-1.4-0.5c-0.4-0.4-0.6-0.9-0.6-1.5c0-0.6,0.2-1.1,0.6-1.5c0.4-0.4,0.9-0.6,1.4-0.6c0.6,0,1,0.2,1.4,0.6
	c0.4,0.4,0.6,0.8,0.6,1.5c0,0.6-0.2,1.1-0.6,1.5C1049.9,218.2,1049.4,218.4,1048.8,218.4z M1072.8,215.8c-0.7,0.7-1.5,1.6-2.3,2.5
	c-0.9,0.9-1.8,1.8-2.7,2.8c-0.9,0.9-1.8,1.9-2.8,2.8c-0.9,0.9-1.8,1.8-2.6,2.6c0.9,0.7,1.9,1.5,3,2.4c1,1,2.1,2,3.1,3.1
	c1,1.1,2,2.2,2.8,3.4c0.9,1.1,1.7,2.2,2.2,3.3h-3.8c-0.7-1-1.4-2.1-2.3-3.1c-0.9-1.1-1.8-2.1-2.7-3c-0.9-1-1.9-1.9-2.9-2.7
	c-1-0.8-1.9-1.5-2.8-2.1v10.9h-3.2v-22.9h3.2v10.1c0.8-0.7,1.6-1.5,2.5-2.4c0.9-0.9,1.8-1.8,2.7-2.8s1.8-1.8,2.5-2.6
	c0.8-0.9,1.5-1.6,2-2.2H1072.8z M1095.8,215.8c-0.8,2.4-1.6,4.7-2.4,6.7c-0.8,2-1.5,4-2.2,5.8c-0.7,1.8-1.5,3.6-2.2,5.3
	c-0.7,1.7-1.4,3.3-2.2,5h-3c-0.8-1.6-1.5-3.3-2.2-5c-0.7-1.7-1.4-3.5-2.2-5.3c-0.7-1.8-1.5-3.8-2.2-5.8c-0.8-2.1-1.6-4.3-2.4-6.7
	h3.5c1.2,3.5,2.4,6.8,3.5,10c1.1,3.2,2.3,6.2,3.5,9c1.2-2.8,2.4-5.8,3.5-9c1.2-3.2,2.3-6.6,3.5-10.1H1095.8z M1105.1,230.7
	c0.4-1,1-2.1,1.7-3.4c0.7-1.3,1.5-2.6,2.4-4c0.9-1.4,1.9-2.7,2.9-4c1.1-1.3,2.1-2.5,3.2-3.6h2.9v14.5h2.7v2.5h-2.7v5.8h-3v-5.8
	h-10.2V230.7z M1115.3,219.4c-0.7,0.7-1.3,1.5-2,2.4c-0.7,0.9-1.3,1.8-1.9,2.7c-0.6,0.9-1.2,1.9-1.8,2.9c-0.6,1-1,2-1.5,2.9h7.3
	V219.4z"/>
<path class="st2" d="M20,292.5h221c1.1,0,2,0.9,2,2v73c0,1.1-0.9,2-2,2H20c-1.1,0-2-0.9-2-2v-73C18,293.4,18.9,292.5,20,292.5z"/>
<path class="st3" d="M20,384.5h221c1.1,0,2,0.9,2,2v73c0,1.1-0.9,2-2,2H20c-1.1,0-2-0.9-2-2v-73C18,385.4,18.9,384.5,20,384.5z"/>
<path class="st4" d="M20,476.5h221c1.1,0,2,0.9,2,2v73c0,1.1-0.9,2-2,2H20c-1.1,0-2-0.9-2-2v-73C18,477.4,18.9,476.5,20,476.5z"/>
<path class="st5" d="M20,616.5h221c1.1,0,2,0.9,2,2v73c0,1.1-0.9,2-2,2H20c-1.1,0-2-0.9-2-2v-73C18,617.4,18.9,616.5,20,616.5z"/>
<path class="st2" d="M334,292.5h221c1.1,0,2,0.9,2,2v73c0,1.1-0.9,2-2,2H334c-1.1,0-2-0.9-2-2v-73C332,293.4,332.9,292.5,334,292.5z
	"/>
<path class="st6" d="M334,382.5h221c1.1,0,2,0.9,2,2v73c0,1.1-0.9,2-2,2H334c-1.1,0-2-0.9-2-2v-73C332,383.4,332.9,382.5,334,382.5z
	"/>
<path class="st3" d="M334,476.5h221c1.1,0,2,0.9,2,2v73c0,1.1-0.9,2-2,2H334c-1.1,0-2-0.9-2-2v-73C332,477.4,332.9,476.5,334,476.5z
	"/>
<path class="st7" d="M334,615.5h221c1.1,0,2,0.9,2,2v73c0,1.1-0.9,2-2,2H334c-1.1,0-2-0.9-2-2v-73C332,616.4,332.9,615.5,334,615.5z
	"/>
<path class="st6" d="M650,292.5h221c1.1,0,2,0.9,2,2v73c0,1.1-0.9,2-2,2H650c-1.1,0-2-0.9-2-2v-73C648,293.4,648.9,292.5,650,292.5z
	"/>
<path class="st4" d="M650,382.5h221c1.1,0,2,0.9,2,2v73c0,1.1-0.9,2-2,2H650c-1.1,0-2-0.9-2-2v-73C648,383.4,648.9,382.5,650,382.5z
	"/>
<path class="st3" d="M650,476.5h221c1.1,0,2,0.9,2,2v73c0,1.1-0.9,2-2,2H650c-1.1,0-2-0.9-2-2v-73C648,477.4,648.9,476.5,650,476.5z
	"/>
<path class="st2" d="M964,292.5h221c1.1,0,2,0.9,2,2v73c0,1.1-0.9,2-2,2H964c-1.1,0-2-0.9-2-2v-73C962,293.4,962.9,292.5,964,292.5z
	"/>
<path class="st6" d="M964,384.5h221c1.1,0,2,0.9,2,2v73c0,1.1-0.9,2-2,2H964c-1.1,0-2-0.9-2-2v-73C962,385.4,962.9,384.5,964,384.5z
	"/>
<path class="st4" d="M964,477.5h221c1.1,0,2,0.9,2,2v73c0,1.1-0.9,2-2,2H964c-1.1,0-2-0.9-2-2v-73C962,478.4,962.9,477.5,964,477.5z
	"/>
<path class="st8" d="M964,610.5h221c1.1,0,2,0.9,2,2v73c0,1.1-0.9,2-2,2H964c-1.1,0-2-0.9-2-2v-73C962,611.4,962.9,610.5,964,610.5z
	"/>
<path class="st0" d="M973.9,508.5c-0.1-0.2-9.2-21.3-44.7-45.3c-35.7-24.1-62.6-28.6-62.9-28.6l0.3-2c0.3,0,27.6,4.6,63.7,29
	c36.2,24.4,45.1,45.3,45.5,46.2L973.9,508.5z"/>
<path class="st0" d="M88.5,323c2.5,0,4.4,0.5,5.7,1.4c1.3,0.9,2,2.3,2,4.2c0,2.4-1.2,3.9-3.5,4.8c0.3,0.4,0.7,0.9,1.1,1.4
	c0.4,0.5,0.8,1.1,1.2,1.8c0.4,0.6,0.8,1.3,1.2,2c0.4,0.7,0.7,1.3,1,2h-3.5c-0.3-0.6-0.7-1.2-1-1.8c-0.4-0.6-0.7-1.2-1.1-1.8
	c-0.4-0.6-0.7-1.1-1.1-1.6c-0.4-0.5-0.7-1-1-1.4c-0.2,0-0.4,0-0.6,0c-0.2,0-0.3,0-0.5,0h-1.5v6.6h-3.1v-17.1
	c0.8-0.2,1.6-0.3,2.4-0.3C87.1,323,87.8,323,88.5,323z M88.7,325.7c-0.7,0-1.3,0-1.9,0.1v5.6h1.4c0.8,0,1.4,0,2-0.1
	c0.6-0.1,1.1-0.2,1.5-0.5c0.4-0.2,0.7-0.5,0.9-0.9c0.2-0.4,0.3-0.8,0.3-1.4c0-0.5-0.1-1-0.3-1.4c-0.2-0.4-0.5-0.7-0.9-0.9
	c-0.4-0.2-0.8-0.4-1.3-0.4C89.9,325.8,89.4,325.7,88.7,325.7z M98.9,334c0-1.1,0.2-2.2,0.5-3c0.3-0.9,0.8-1.6,1.4-2.2
	c0.6-0.6,1.2-1,1.9-1.3c0.7-0.3,1.5-0.5,2.2-0.5c1.8,0,3.2,0.6,4.2,1.7c1,1.1,1.5,2.8,1.5,5c0,0.2,0,0.4,0,0.6c0,0.2,0,0.4,0,0.6
	H102c0.1,1,0.4,1.9,1.1,2.4c0.7,0.6,1.6,0.9,2.9,0.9c0.7,0,1.4-0.1,2-0.2c0.6-0.1,1.1-0.3,1.5-0.4l0.4,2.5c-0.2,0.1-0.4,0.2-0.7,0.3
	c-0.3,0.1-0.6,0.2-1,0.2c-0.4,0.1-0.8,0.1-1.2,0.2c-0.4,0-0.9,0.1-1.3,0.1c-1.2,0-2.2-0.2-3-0.5c-0.8-0.4-1.5-0.8-2.1-1.4
	c-0.5-0.6-1-1.3-1.2-2.1C99,335.9,98.9,335,98.9,334z M107.6,332.7c0-0.4-0.1-0.8-0.2-1.2c-0.1-0.4-0.3-0.7-0.5-1
	c-0.2-0.3-0.5-0.5-0.8-0.6c-0.3-0.2-0.7-0.2-1.2-0.2c-0.5,0-0.9,0.1-1.2,0.3c-0.3,0.2-0.7,0.4-0.9,0.7c-0.2,0.3-0.4,0.6-0.5,1
	c-0.1,0.4-0.2,0.7-0.3,1.1H107.6z M116.2,333.6c0,1.3,0.3,2.2,0.8,2.8c0.6,0.6,1.3,0.9,2.2,0.9c0.5,0,0.9-0.1,1.3-0.2
	c0.4-0.1,0.8-0.3,1-0.5v-6.8c-0.2-0.1-0.5-0.1-0.8-0.1c-0.3-0.1-0.7-0.1-1.2-0.1c-1.1,0-1.9,0.4-2.5,1.1
	C116.5,331.5,116.2,332.4,116.2,333.6z M124.7,339.2c0,2.1-0.5,3.6-1.6,4.6c-1.1,1-2.7,1.4-4.8,1.4c-0.8,0-1.6-0.1-2.3-0.2
	c-0.8-0.1-1.4-0.3-2.1-0.5l0.6-2.6c0.5,0.2,1.1,0.4,1.8,0.5c0.7,0.1,1.4,0.2,2.1,0.2c1.2,0,2.1-0.2,2.6-0.8c0.5-0.5,0.8-1.2,0.8-2.2
	v-0.5c-0.3,0.1-0.7,0.3-1.2,0.4c-0.5,0.2-1,0.2-1.7,0.2c-0.8,0-1.6-0.1-2.3-0.4c-0.7-0.3-1.3-0.7-1.8-1.2c-0.5-0.5-0.9-1.2-1.2-1.9
	c-0.3-0.8-0.4-1.7-0.4-2.7c0-1,0.1-1.8,0.4-2.6c0.3-0.8,0.7-1.5,1.3-2.1c0.6-0.6,1.2-1,2-1.3c0.8-0.3,1.7-0.5,2.7-0.5
	c1,0,1.9,0.1,2.8,0.2c0.9,0.1,1.6,0.3,2.2,0.5V339.2z M131.6,340.5h-3v-13.1h3V340.5z M131.9,323.6c0,0.6-0.2,1-0.6,1.4
	c-0.4,0.3-0.8,0.5-1.3,0.5c-0.5,0-1-0.2-1.3-0.5c-0.4-0.3-0.6-0.8-0.6-1.4c0-0.6,0.2-1,0.6-1.4c0.4-0.3,0.8-0.5,1.3-0.5
	c0.5,0,0.9,0.2,1.3,0.5C131.7,322.6,131.9,323,131.9,323.6z M147.3,333.9c0,1-0.1,2-0.4,2.8s-0.7,1.6-1.3,2.2
	c-0.5,0.6-1.2,1.1-2,1.4c-0.8,0.3-1.6,0.5-2.5,0.5s-1.8-0.2-2.6-0.5c-0.8-0.3-1.4-0.8-2-1.4s-1-1.3-1.3-2.2
	c-0.3-0.9-0.4-1.8-0.4-2.8c0-1,0.2-2,0.4-2.8c0.3-0.9,0.8-1.6,1.3-2.2c0.6-0.6,1.2-1.1,2-1.4c0.8-0.3,1.6-0.5,2.5-0.5
	c0.9,0,1.8,0.2,2.5,0.5c0.8,0.3,1.4,0.8,2,1.4c0.6,0.6,1,1.3,1.3,2.2C147.1,332,147.3,332.9,147.3,333.9z M144.2,333.9
	c0-1.3-0.3-2.3-0.8-3.1c-0.6-0.8-1.3-1.2-2.3-1.2s-1.8,0.4-2.4,1.2c-0.6,0.8-0.8,1.8-0.8,3.1c0,1.3,0.3,2.4,0.8,3.1
	c0.6,0.8,1.4,1.1,2.4,1.1s1.8-0.4,2.3-1.1C143.9,336.3,144.2,335.3,144.2,333.9z M150.4,327.8c0.6-0.2,1.3-0.3,2.3-0.5
	c0.9-0.2,2-0.2,3.1-0.2c1.1,0,2,0.1,2.7,0.4c0.7,0.3,1.3,0.7,1.7,1.2c0.4,0.5,0.7,1.1,0.9,1.9c0.2,0.7,0.3,1.5,0.3,2.4v7.4h-3v-6.9
	c0-0.7-0.1-1.3-0.2-1.8c-0.1-0.5-0.2-0.9-0.4-1.2c-0.2-0.3-0.5-0.5-0.9-0.7c-0.3-0.1-0.8-0.2-1.3-0.2c-0.4,0-0.8,0-1.2,0.1
	c-0.4,0.1-0.7,0.1-0.9,0.1v10.6h-3V327.8z M171.2,326.8c1-0.4,1.9-0.9,2.9-1.5c1-0.6,1.8-1.3,2.6-2.1h2.1v17.3h-3v-13.3
	c-0.4,0.4-1,0.7-1.7,1c-0.7,0.3-1.3,0.6-2,0.8L171.2,326.8z"/>
<path class="st0" d="M88.5,415c2.5,0,4.4,0.5,5.7,1.4c1.3,0.9,2,2.3,2,4.2c0,2.4-1.2,3.9-3.5,4.8c0.3,0.4,0.7,0.9,1.1,1.4
	c0.4,0.5,0.8,1.1,1.2,1.8c0.4,0.6,0.8,1.3,1.2,2c0.4,0.7,0.7,1.3,1,2h-3.5c-0.3-0.6-0.7-1.2-1-1.8c-0.4-0.6-0.7-1.2-1.1-1.8
	c-0.4-0.6-0.7-1.1-1.1-1.6c-0.4-0.5-0.7-1-1-1.4c-0.2,0-0.4,0-0.6,0c-0.2,0-0.3,0-0.5,0h-1.5v6.6h-3.1v-17.1
	c0.8-0.2,1.6-0.3,2.4-0.3C87.1,415,87.8,415,88.5,415z M88.7,417.7c-0.7,0-1.3,0-1.9,0.1v5.6h1.4c0.8,0,1.4,0,2-0.1
	c0.6-0.1,1.1-0.2,1.5-0.5c0.4-0.2,0.7-0.5,0.9-0.9c0.2-0.4,0.3-0.8,0.3-1.4c0-0.5-0.1-1-0.3-1.4c-0.2-0.4-0.5-0.7-0.9-0.9
	c-0.4-0.2-0.8-0.4-1.3-0.4C89.9,417.8,89.4,417.7,88.7,417.7z M98.9,426c0-1.1,0.2-2.2,0.5-3c0.3-0.9,0.8-1.6,1.4-2.2
	c0.6-0.6,1.2-1,1.9-1.3c0.7-0.3,1.5-0.5,2.2-0.5c1.8,0,3.2,0.6,4.2,1.7c1,1.1,1.5,2.8,1.5,5c0,0.2,0,0.4,0,0.6c0,0.2,0,0.4,0,0.6
	H102c0.1,1,0.4,1.9,1.1,2.4c0.7,0.6,1.6,0.9,2.9,0.9c0.7,0,1.4-0.1,2-0.2c0.6-0.1,1.1-0.3,1.5-0.4l0.4,2.5c-0.2,0.1-0.4,0.2-0.7,0.3
	c-0.3,0.1-0.6,0.2-1,0.2c-0.4,0.1-0.8,0.1-1.2,0.2c-0.4,0-0.9,0.1-1.3,0.1c-1.2,0-2.2-0.2-3-0.5c-0.8-0.4-1.5-0.8-2.1-1.4
	c-0.5-0.6-1-1.3-1.2-2.1C99,427.9,98.9,427,98.9,426z M107.6,424.7c0-0.4-0.1-0.8-0.2-1.2c-0.1-0.4-0.3-0.7-0.5-1
	c-0.2-0.3-0.5-0.5-0.8-0.6c-0.3-0.2-0.7-0.2-1.2-0.2c-0.5,0-0.9,0.1-1.2,0.3c-0.3,0.2-0.7,0.4-0.9,0.7c-0.2,0.3-0.4,0.6-0.5,1
	c-0.1,0.4-0.2,0.7-0.3,1.1H107.6z M116.2,425.6c0,1.3,0.3,2.2,0.8,2.8c0.6,0.6,1.3,0.9,2.2,0.9c0.5,0,0.9-0.1,1.3-0.2
	c0.4-0.1,0.8-0.3,1-0.5v-6.8c-0.2-0.1-0.5-0.1-0.8-0.1c-0.3-0.1-0.7-0.1-1.2-0.1c-1.1,0-1.9,0.4-2.5,1.1
	C116.5,423.5,116.2,424.4,116.2,425.6z M124.7,431.2c0,2.1-0.5,3.6-1.6,4.6c-1.1,1-2.7,1.4-4.8,1.4c-0.8,0-1.6-0.1-2.3-0.2
	c-0.8-0.1-1.4-0.3-2.1-0.5l0.6-2.6c0.5,0.2,1.1,0.4,1.8,0.5c0.7,0.1,1.4,0.2,2.1,0.2c1.2,0,2.1-0.2,2.6-0.8c0.5-0.5,0.8-1.2,0.8-2.2
	v-0.5c-0.3,0.1-0.7,0.3-1.2,0.4c-0.5,0.2-1,0.2-1.7,0.2c-0.8,0-1.6-0.1-2.3-0.4c-0.7-0.3-1.3-0.7-1.8-1.2c-0.5-0.5-0.9-1.2-1.2-1.9
	c-0.3-0.8-0.4-1.7-0.4-2.7c0-1,0.1-1.8,0.4-2.6c0.3-0.8,0.7-1.5,1.3-2.1c0.6-0.6,1.2-1,2-1.3c0.8-0.3,1.7-0.5,2.7-0.5
	c1,0,1.9,0.1,2.8,0.2c0.9,0.1,1.6,0.3,2.2,0.5V431.2z M131.6,432.5h-3v-13.1h3V432.5z M131.9,415.6c0,0.6-0.2,1-0.6,1.4
	c-0.4,0.3-0.8,0.5-1.3,0.5c-0.5,0-1-0.2-1.3-0.5c-0.4-0.3-0.6-0.8-0.6-1.4c0-0.6,0.2-1,0.6-1.4c0.4-0.3,0.8-0.5,1.3-0.5
	c0.5,0,0.9,0.2,1.3,0.5C131.7,414.6,131.9,415,131.9,415.6z M147.3,425.9c0,1-0.1,2-0.4,2.8s-0.7,1.6-1.3,2.2
	c-0.5,0.6-1.2,1.1-2,1.4c-0.8,0.3-1.6,0.5-2.5,0.5s-1.8-0.2-2.6-0.5c-0.8-0.3-1.4-0.8-2-1.4s-1-1.3-1.3-2.2
	c-0.3-0.9-0.4-1.8-0.4-2.8c0-1,0.2-2,0.4-2.8c0.3-0.9,0.8-1.6,1.3-2.2c0.6-0.6,1.2-1.1,2-1.4c0.8-0.3,1.6-0.5,2.5-0.5
	c0.9,0,1.8,0.2,2.5,0.5c0.8,0.3,1.4,0.8,2,1.4c0.6,0.6,1,1.3,1.3,2.2C147.1,424,147.3,424.9,147.3,425.9z M144.2,425.9
	c0-1.3-0.3-2.3-0.8-3.1c-0.6-0.8-1.3-1.2-2.3-1.2s-1.8,0.4-2.4,1.2c-0.6,0.8-0.8,1.8-0.8,3.1c0,1.3,0.3,2.4,0.8,3.1
	c0.6,0.8,1.4,1.1,2.4,1.1s1.8-0.4,2.3-1.1C143.9,428.3,144.2,427.3,144.2,425.9z M150.4,419.8c0.6-0.2,1.3-0.3,2.3-0.5
	c0.9-0.2,2-0.2,3.1-0.2c1.1,0,2,0.1,2.7,0.4c0.7,0.3,1.3,0.7,1.7,1.2c0.4,0.5,0.7,1.1,0.9,1.9c0.2,0.7,0.3,1.5,0.3,2.4v7.4h-3v-6.9
	c0-0.7-0.1-1.3-0.2-1.8c-0.1-0.5-0.2-0.9-0.4-1.2c-0.2-0.3-0.5-0.5-0.9-0.7c-0.3-0.1-0.8-0.2-1.3-0.2c-0.4,0-0.8,0-1.2,0.1
	c-0.4,0.1-0.7,0.1-0.9,0.1v10.6h-3V419.8z M174.8,432.9c-0.4,0-0.9,0-1.4-0.1c-0.5-0.1-0.9-0.1-1.3-0.2c-0.4-0.1-0.8-0.2-1.2-0.3
	c-0.3-0.1-0.6-0.2-0.8-0.3l0.6-2.6c0.4,0.2,0.9,0.4,1.5,0.6c0.7,0.2,1.5,0.3,2.5,0.3c1.3,0,2.3-0.2,2.9-0.8c0.6-0.5,0.9-1.2,0.9-2.1
	c0-0.5-0.1-1-0.4-1.4c-0.2-0.4-0.5-0.7-0.9-0.9c-0.4-0.2-0.8-0.4-1.3-0.5c-0.5-0.1-1-0.1-1.6-0.1h-1v-2.4h1.2c0.4,0,0.8,0,1.1-0.1
	c0.4-0.1,0.8-0.2,1.1-0.4c0.3-0.2,0.6-0.5,0.8-0.8c0.2-0.3,0.3-0.7,0.3-1.2c0-0.4-0.1-0.7-0.2-1c-0.1-0.3-0.4-0.5-0.6-0.7
	c-0.2-0.2-0.5-0.3-0.8-0.4c-0.3-0.1-0.6-0.1-1-0.1c-0.8,0-1.4,0.1-2,0.3c-0.6,0.2-1.1,0.5-1.6,0.8l-1.1-2.2c0.2-0.1,0.5-0.3,0.8-0.5
	c0.3-0.2,0.7-0.3,1.1-0.5c0.4-0.1,0.9-0.3,1.3-0.4c0.5-0.1,1-0.1,1.5-0.1c1,0,1.8,0.1,2.5,0.4s1.3,0.6,1.7,1c0.5,0.4,0.8,0.9,1,1.5
	c0.2,0.6,0.3,1.2,0.3,1.9c0,0.8-0.2,1.5-0.7,2.1c-0.4,0.6-1,1.1-1.7,1.4c0.9,0.3,1.6,0.8,2.2,1.6c0.6,0.7,0.9,1.7,0.9,2.8
	c0,0.8-0.1,1.5-0.4,2.1c-0.3,0.6-0.7,1.2-1.2,1.7c-0.5,0.5-1.2,0.8-2.1,1.1C177,432.7,176,432.9,174.8,432.9z"/>
<path class="st0" d="M88.5,508c2.5,0,4.4,0.5,5.7,1.4c1.3,0.9,2,2.3,2,4.2c0,2.3-1.2,3.9-3.5,4.8c0.3,0.4,0.7,0.9,1.1,1.4
	s0.8,1.1,1.2,1.8c0.4,0.6,0.8,1.3,1.2,2c0.4,0.7,0.7,1.3,1,2h-3.5c-0.3-0.6-0.7-1.2-1-1.8c-0.4-0.6-0.7-1.2-1.1-1.8
	c-0.4-0.6-0.7-1.1-1.1-1.6c-0.4-0.5-0.7-1-1-1.4c-0.2,0-0.4,0-0.6,0c-0.2,0-0.3,0-0.5,0h-1.5v6.5h-3.1v-17.1
	c0.8-0.2,1.6-0.3,2.4-0.3C87.1,508,87.8,508,88.5,508z M88.7,510.7c-0.7,0-1.3,0-1.9,0.1v5.6h1.4c0.8,0,1.4,0,2-0.1
	c0.6-0.1,1.1-0.2,1.5-0.4c0.4-0.2,0.7-0.5,0.9-0.9c0.2-0.4,0.3-0.8,0.3-1.4c0-0.5-0.1-1-0.3-1.3c-0.2-0.4-0.5-0.7-0.9-0.9
	c-0.4-0.2-0.8-0.4-1.3-0.4C89.9,510.8,89.4,510.7,88.7,510.7z M98.9,519c0-1.1,0.2-2.2,0.5-3c0.3-0.9,0.8-1.6,1.4-2.2
	c0.6-0.6,1.2-1,1.9-1.3c0.7-0.3,1.5-0.5,2.2-0.5c1.8,0,3.2,0.6,4.2,1.7c1,1.1,1.5,2.8,1.5,5c0,0.2,0,0.4,0,0.6c0,0.2,0,0.4,0,0.5
	H102c0.1,1.1,0.4,1.9,1.1,2.5c0.7,0.6,1.6,0.9,2.9,0.9c0.7,0,1.4-0.1,2-0.2c0.6-0.1,1.1-0.3,1.5-0.4l0.4,2.5
	c-0.2,0.1-0.4,0.2-0.7,0.3c-0.3,0.1-0.6,0.2-1,0.2c-0.4,0.1-0.8,0.2-1.2,0.2c-0.4,0-0.9,0.1-1.3,0.1c-1.2,0-2.2-0.2-3-0.5
	c-0.8-0.4-1.5-0.8-2.1-1.4c-0.5-0.6-1-1.3-1.2-2.1C99,520.9,98.9,520,98.9,519z M107.6,517.7c0-0.4-0.1-0.8-0.2-1.2
	c-0.1-0.4-0.3-0.7-0.5-1c-0.2-0.3-0.5-0.5-0.8-0.6c-0.3-0.2-0.7-0.2-1.2-0.2c-0.5,0-0.9,0.1-1.2,0.3c-0.3,0.2-0.7,0.4-0.9,0.7
	c-0.2,0.3-0.4,0.6-0.5,1c-0.1,0.4-0.2,0.7-0.3,1.1H107.6z M116.2,518.6c0,1.3,0.3,2.2,0.8,2.8c0.6,0.6,1.3,0.9,2.2,0.9
	c0.5,0,0.9-0.1,1.3-0.2c0.4-0.1,0.8-0.3,1-0.5v-6.8c-0.2,0-0.5-0.1-0.8-0.1c-0.3,0-0.7-0.1-1.2-0.1c-1.1,0-1.9,0.4-2.5,1.1
	C116.5,516.5,116.2,517.4,116.2,518.6z M124.7,524.2c0,2.1-0.5,3.6-1.6,4.6c-1.1,1-2.7,1.5-4.8,1.5c-0.8,0-1.6-0.1-2.3-0.2
	c-0.8-0.1-1.4-0.3-2.1-0.5l0.6-2.6c0.5,0.2,1.1,0.4,1.8,0.5c0.7,0.1,1.4,0.2,2.1,0.2c1.2,0,2.1-0.2,2.6-0.8c0.5-0.5,0.8-1.2,0.8-2.2
	v-0.5c-0.3,0.2-0.7,0.3-1.2,0.5c-0.5,0.2-1,0.2-1.7,0.2c-0.8,0-1.6-0.1-2.3-0.4c-0.7-0.3-1.3-0.7-1.8-1.2c-0.5-0.5-0.9-1.2-1.2-1.9
	c-0.3-0.8-0.4-1.7-0.4-2.7c0-1,0.1-1.8,0.4-2.6c0.3-0.8,0.7-1.5,1.3-2c0.6-0.6,1.2-1,2-1.3c0.8-0.3,1.7-0.5,2.7-0.5
	c1,0,1.9,0.1,2.8,0.2c0.9,0.1,1.6,0.3,2.2,0.5V524.2z M131.6,525.5h-3v-13.1h3V525.5z M131.9,508.6c0,0.6-0.2,1-0.6,1.4
	c-0.4,0.3-0.8,0.5-1.3,0.5c-0.5,0-1-0.2-1.3-0.5c-0.4-0.3-0.6-0.8-0.6-1.4c0-0.6,0.2-1,0.6-1.4c0.4-0.3,0.8-0.5,1.3-0.5
	c0.5,0,0.9,0.2,1.3,0.5C131.7,507.6,131.9,508,131.9,508.6z M147.3,518.9c0,1-0.1,2-0.4,2.8c-0.3,0.9-0.7,1.6-1.3,2.2
	c-0.5,0.6-1.2,1.1-2,1.4c-0.8,0.3-1.6,0.5-2.5,0.5s-1.8-0.2-2.6-0.5s-1.4-0.8-2-1.4c-0.6-0.6-1-1.3-1.3-2.2
	c-0.3-0.8-0.4-1.8-0.4-2.8c0-1,0.2-2,0.4-2.8c0.3-0.8,0.8-1.6,1.3-2.2c0.6-0.6,1.2-1.1,2-1.4c0.8-0.3,1.6-0.5,2.5-0.5
	c0.9,0,1.8,0.2,2.5,0.5c0.8,0.3,1.4,0.8,2,1.4c0.6,0.6,1,1.3,1.3,2.2C147.1,517,147.3,517.9,147.3,518.9z M144.2,518.9
	c0-1.3-0.3-2.3-0.8-3.1c-0.6-0.8-1.3-1.2-2.3-1.2s-1.8,0.4-2.4,1.2c-0.6,0.8-0.8,1.8-0.8,3.1c0,1.3,0.3,2.4,0.8,3.1
	c0.6,0.8,1.4,1.1,2.4,1.1s1.8-0.4,2.3-1.1C143.9,521.3,144.2,520.3,144.2,518.9z M150.4,512.8c0.6-0.2,1.3-0.3,2.3-0.5
	c0.9-0.2,2-0.2,3.1-0.2c1.1,0,2,0.2,2.7,0.5c0.7,0.3,1.3,0.7,1.7,1.2c0.4,0.5,0.7,1.1,0.9,1.9c0.2,0.7,0.3,1.5,0.3,2.4v7.4h-3v-6.9
	c0-0.7-0.1-1.3-0.2-1.8c-0.1-0.5-0.2-0.9-0.4-1.2c-0.2-0.3-0.5-0.5-0.9-0.7c-0.3-0.1-0.8-0.2-1.3-0.2c-0.4,0-0.8,0-1.2,0.1
	c-0.4,0-0.7,0.1-0.9,0.1v10.5h-3V512.8z M177.3,511.9c-0.4,0.5-0.8,1-1.2,1.6c-0.4,0.5-0.8,1.1-1.2,1.7c-0.4,0.6-0.8,1.2-1.2,1.8
	c-0.4,0.6-0.7,1.2-1,1.9h4.6V511.9z M180.3,508.2v10.7h2v2.5h-2v4.2h-2.9v-4.2h-7.6v-2.1c0.3-0.7,0.8-1.6,1.3-2.5
	c0.6-1,1.2-1.9,1.9-2.9c0.7-1,1.4-2,2.2-3c0.8-1,1.5-1.8,2.3-2.6H180.3z"/>
<path class="st0" d="M88.5,641.1c2.5,0,4.4,0.5,5.7,1.4c1.3,0.9,2,2.3,2,4.2c0,2.3-1.2,3.9-3.5,4.8c0.3,0.4,0.7,0.8,1.1,1.4
	s0.8,1.2,1.2,1.8c0.4,0.6,0.8,1.3,1.2,2c0.4,0.7,0.7,1.3,1,2h-3.5c-0.3-0.6-0.7-1.2-1-1.8c-0.4-0.6-0.7-1.2-1.1-1.8
	c-0.4-0.6-0.7-1.1-1.1-1.6c-0.4-0.5-0.7-1-1-1.4c-0.2,0-0.4,0-0.6,0c-0.2,0-0.3,0-0.5,0h-1.5v6.5h-3.1v-17.1
	c0.8-0.2,1.6-0.3,2.4-0.3C87.1,641.2,87.8,641.1,88.5,641.1z M88.7,643.8c-0.7,0-1.3,0-1.9,0.1v5.6h1.4c0.8,0,1.4,0,2-0.1
	c0.6-0.1,1.1-0.2,1.5-0.5c0.4-0.2,0.7-0.5,0.9-0.9c0.2-0.4,0.3-0.8,0.3-1.4c0-0.5-0.1-1-0.3-1.3c-0.2-0.4-0.5-0.7-0.9-0.9
	c-0.4-0.2-0.8-0.4-1.3-0.5C89.9,643.9,89.4,643.8,88.7,643.8z M98.9,652.1c0-1.2,0.2-2.2,0.5-3c0.3-0.9,0.8-1.6,1.4-2.1
	c0.6-0.6,1.2-1,1.9-1.3c0.7-0.3,1.5-0.4,2.2-0.4c1.8,0,3.2,0.6,4.2,1.7c1,1.1,1.5,2.8,1.5,5c0,0.2,0,0.4,0,0.6c0,0.2,0,0.4,0,0.5
	H102c0.1,1,0.4,1.9,1.1,2.5c0.7,0.6,1.6,0.8,2.9,0.8c0.7,0,1.4-0.1,2-0.2c0.6-0.1,1.1-0.3,1.5-0.4l0.4,2.5c-0.2,0.1-0.4,0.2-0.7,0.3
	c-0.3,0.1-0.6,0.2-1,0.2c-0.4,0.1-0.8,0.2-1.2,0.2c-0.4,0-0.9,0.1-1.3,0.1c-1.2,0-2.2-0.2-3-0.5c-0.8-0.3-1.5-0.8-2.1-1.4
	c-0.5-0.6-1-1.3-1.2-2.2C99,654,98.9,653.1,98.9,652.1z M107.6,650.8c0-0.4-0.1-0.8-0.2-1.2c-0.1-0.4-0.3-0.7-0.5-1
	c-0.2-0.3-0.5-0.5-0.8-0.7c-0.3-0.2-0.7-0.2-1.2-0.2c-0.5,0-0.9,0.1-1.2,0.3c-0.3,0.2-0.7,0.4-0.9,0.7c-0.2,0.3-0.4,0.6-0.5,1
	c-0.1,0.4-0.2,0.7-0.3,1.1H107.6z M116.2,651.7c0,1.3,0.3,2.2,0.8,2.8c0.6,0.6,1.3,0.9,2.2,0.9c0.5,0,0.9-0.1,1.3-0.2
	c0.4-0.1,0.8-0.3,1-0.5V648c-0.2,0-0.5-0.1-0.8-0.1c-0.3,0-0.7-0.1-1.2-0.1c-1.1,0-1.9,0.4-2.5,1.1
	C116.5,649.6,116.2,650.6,116.2,651.7z M124.7,657.3c0,2.1-0.5,3.6-1.6,4.6c-1.1,1-2.7,1.5-4.8,1.5c-0.8,0-1.6-0.1-2.3-0.2
	c-0.8-0.1-1.4-0.3-2.1-0.5l0.6-2.6c0.5,0.2,1.1,0.4,1.8,0.5c0.7,0.1,1.4,0.2,2.1,0.2c1.2,0,2.1-0.2,2.6-0.8c0.5-0.5,0.8-1.2,0.8-2.2
	v-0.5c-0.3,0.1-0.7,0.3-1.2,0.5c-0.5,0.1-1,0.2-1.7,0.2c-0.8,0-1.6-0.1-2.3-0.4c-0.7-0.3-1.3-0.7-1.8-1.2c-0.5-0.5-0.9-1.2-1.2-1.9
	c-0.3-0.8-0.4-1.7-0.4-2.7c0-1,0.1-1.8,0.4-2.6c0.3-0.8,0.7-1.5,1.3-2c0.6-0.6,1.2-1,2-1.3c0.8-0.3,1.7-0.5,2.7-0.5
	c1,0,1.9,0.1,2.8,0.2c0.9,0.2,1.6,0.3,2.2,0.5V657.3z M131.6,658.6h-3v-13.1h3V658.6z M131.9,641.7c0,0.6-0.2,1-0.6,1.3
	c-0.4,0.3-0.8,0.5-1.3,0.5c-0.5,0-1-0.2-1.3-0.5c-0.4-0.3-0.6-0.8-0.6-1.3c0-0.6,0.2-1,0.6-1.4c0.4-0.3,0.8-0.5,1.3-0.5
	c0.5,0,0.9,0.2,1.3,0.5C131.7,640.7,131.9,641.1,131.9,641.7z M147.3,652.1c0,1-0.1,2-0.4,2.8c-0.3,0.8-0.7,1.6-1.3,2.2
	c-0.5,0.6-1.2,1.1-2,1.4c-0.8,0.3-1.6,0.5-2.5,0.5s-1.8-0.2-2.6-0.5c-0.8-0.3-1.4-0.8-2-1.4s-1-1.3-1.3-2.2
	c-0.3-0.9-0.4-1.8-0.4-2.8c0-1,0.2-2,0.4-2.8c0.3-0.9,0.8-1.6,1.3-2.2c0.6-0.6,1.2-1.1,2-1.4c0.8-0.3,1.6-0.5,2.5-0.5
	c0.9,0,1.8,0.2,2.5,0.5c0.8,0.3,1.4,0.8,2,1.4c0.6,0.6,1,1.3,1.3,2.2C147.1,650.1,147.3,651,147.3,652.1z M144.2,652.1
	c0-1.3-0.3-2.3-0.8-3.1c-0.6-0.8-1.3-1.1-2.3-1.1s-1.8,0.4-2.4,1.1c-0.6,0.8-0.8,1.8-0.8,3.1c0,1.3,0.3,2.4,0.8,3.1
	c0.6,0.8,1.4,1.2,2.4,1.2s1.8-0.4,2.3-1.2C143.9,654.4,144.2,653.4,144.2,652.1z M150.4,646c0.6-0.2,1.3-0.3,2.3-0.5
	c0.9-0.1,2-0.2,3.1-0.2c1.1,0,2,0.1,2.7,0.5c0.7,0.3,1.3,0.7,1.7,1.2c0.4,0.5,0.7,1.2,0.9,1.9c0.2,0.7,0.3,1.5,0.3,2.4v7.3h-3v-6.9
	c0-0.7-0.1-1.3-0.2-1.8c-0.1-0.5-0.2-0.9-0.4-1.2c-0.2-0.3-0.5-0.5-0.9-0.7c-0.3-0.2-0.8-0.2-1.3-0.2c-0.4,0-0.8,0-1.2,0.1
	c-0.4,0-0.7,0.1-0.9,0.1v10.5h-3V646z M170.8,646c0.6-0.2,1.3-0.3,2.3-0.5c0.9-0.1,2-0.2,3.1-0.2c1.1,0,2,0.1,2.7,0.5
	c0.7,0.3,1.3,0.7,1.7,1.2c0.4,0.5,0.7,1.2,0.9,1.9c0.2,0.7,0.3,1.5,0.3,2.4v7.3h-3v-6.9c0-0.7-0.1-1.3-0.2-1.8
	c-0.1-0.5-0.2-0.9-0.4-1.2c-0.2-0.3-0.5-0.5-0.9-0.7c-0.3-0.2-0.8-0.2-1.3-0.2c-0.4,0-0.8,0-1.2,0.1c-0.4,0-0.7,0.1-0.9,0.1v10.5h-3
	V646z"/>
<path class="st0" d="M402.5,323c2.5,0,4.4,0.5,5.7,1.4c1.3,0.9,2,2.3,2,4.2c0,2.4-1.2,3.9-3.5,4.8c0.3,0.4,0.7,0.9,1.1,1.4
	c0.4,0.5,0.8,1.1,1.2,1.8c0.4,0.6,0.8,1.3,1.2,2c0.4,0.7,0.7,1.3,1,2h-3.5c-0.3-0.6-0.7-1.2-1-1.8c-0.4-0.6-0.7-1.2-1.1-1.8
	c-0.4-0.6-0.7-1.1-1.1-1.6c-0.4-0.5-0.7-1-1-1.4c-0.2,0-0.4,0-0.6,0s-0.3,0-0.5,0h-1.5v6.6h-3.1v-17.1c0.8-0.2,1.6-0.3,2.5-0.3
	C401.1,323,401.8,323,402.5,323z M402.7,325.7c-0.7,0-1.3,0-1.9,0.1v5.6h1.4c0.8,0,1.4,0,2-0.1c0.6-0.1,1.1-0.2,1.5-0.5
	c0.4-0.2,0.7-0.5,0.9-0.9c0.2-0.4,0.3-0.8,0.3-1.4c0-0.5-0.1-1-0.3-1.4c-0.2-0.4-0.5-0.7-0.9-0.9c-0.4-0.2-0.8-0.4-1.3-0.4
	C403.9,325.8,403.4,325.7,402.7,325.7z M412.9,334c0-1.1,0.2-2.2,0.5-3c0.4-0.9,0.8-1.6,1.4-2.2c0.6-0.6,1.2-1,2-1.3
	c0.7-0.3,1.5-0.5,2.2-0.5c1.8,0,3.2,0.6,4.2,1.7c1,1.1,1.5,2.8,1.5,5c0,0.2,0,0.4,0,0.6c0,0.2,0,0.4,0,0.6H416
	c0.1,1,0.5,1.9,1.1,2.4c0.7,0.6,1.6,0.9,2.9,0.9c0.7,0,1.4-0.1,2-0.2c0.6-0.1,1.1-0.3,1.4-0.4l0.4,2.5c-0.2,0.1-0.4,0.2-0.7,0.3
	c-0.3,0.1-0.6,0.2-1,0.2c-0.4,0.1-0.8,0.1-1.2,0.2c-0.4,0-0.9,0.1-1.3,0.1c-1.1,0-2.1-0.2-3-0.5c-0.9-0.4-1.6-0.8-2.1-1.4
	c-0.5-0.6-1-1.3-1.2-2.1C413,335.9,412.9,335,412.9,334z M421.6,332.7c0-0.4-0.1-0.8-0.2-1.2c-0.1-0.4-0.3-0.7-0.5-1
	c-0.2-0.3-0.5-0.5-0.8-0.6c-0.3-0.2-0.7-0.2-1.1-0.2c-0.5,0-0.9,0.1-1.2,0.3c-0.4,0.2-0.6,0.4-0.9,0.7c-0.2,0.3-0.4,0.6-0.6,1
	c-0.1,0.4-0.2,0.7-0.3,1.1H421.6z M430.2,333.6c0,1.3,0.3,2.2,0.8,2.8c0.6,0.6,1.3,0.9,2.2,0.9c0.5,0,0.9-0.1,1.4-0.2
	c0.4-0.1,0.8-0.3,1.1-0.5v-6.8c-0.2-0.1-0.5-0.1-0.8-0.1c-0.3-0.1-0.7-0.1-1.2-0.1c-1.1,0-1.9,0.4-2.5,1.1
	C430.5,331.5,430.2,332.4,430.2,333.6z M438.7,339.2c0,2.1-0.5,3.6-1.6,4.6c-1,1-2.7,1.4-4.9,1.4c-0.8,0-1.6-0.1-2.4-0.2
	c-0.8-0.1-1.4-0.3-2-0.5l0.5-2.6c0.5,0.2,1.1,0.4,1.8,0.5c0.7,0.1,1.4,0.2,2.2,0.2c1.2,0,2.1-0.2,2.6-0.8c0.5-0.5,0.8-1.2,0.8-2.2
	v-0.5c-0.3,0.1-0.7,0.3-1.2,0.4c-0.5,0.2-1,0.2-1.7,0.2c-0.8,0-1.6-0.1-2.3-0.4c-0.7-0.3-1.3-0.7-1.8-1.2c-0.5-0.5-0.9-1.2-1.1-1.9
	c-0.3-0.8-0.4-1.7-0.4-2.7c0-1,0.1-1.8,0.4-2.6c0.3-0.8,0.7-1.5,1.3-2.1c0.6-0.6,1.2-1,2.1-1.3c0.8-0.3,1.7-0.5,2.7-0.5
	c1,0,1.9,0.1,2.8,0.2c0.9,0.1,1.6,0.3,2.2,0.5V339.2z M445.6,340.5h-3v-13.1h3V340.5z M445.9,323.6c0,0.6-0.2,1-0.6,1.4
	c-0.4,0.3-0.8,0.5-1.3,0.5c-0.5,0-1-0.2-1.3-0.5c-0.4-0.3-0.5-0.8-0.5-1.4c0-0.6,0.2-1,0.5-1.4c0.4-0.3,0.8-0.5,1.3-0.5
	c0.5,0,0.9,0.2,1.3,0.5C445.7,322.6,445.9,323,445.9,323.6z M461.3,333.9c0,1-0.2,2-0.5,2.8s-0.7,1.6-1.3,2.2
	c-0.6,0.6-1.2,1.1-2,1.4c-0.8,0.3-1.6,0.5-2.6,0.5c-0.9,0-1.8-0.2-2.5-0.5c-0.8-0.3-1.4-0.8-2-1.4c-0.5-0.6-1-1.3-1.3-2.2
	c-0.3-0.9-0.5-1.8-0.5-2.8c0-1,0.1-2,0.5-2.8c0.3-0.9,0.8-1.6,1.3-2.2c0.6-0.6,1.2-1.1,2-1.4c0.8-0.3,1.6-0.5,2.5-0.5
	c0.9,0,1.8,0.2,2.5,0.5c0.8,0.3,1.4,0.8,2,1.4c0.5,0.6,1,1.3,1.3,2.2C461.1,332,461.3,332.9,461.3,333.9z M458.2,333.9
	c0-1.3-0.3-2.3-0.9-3.1c-0.5-0.8-1.3-1.2-2.3-1.2s-1.8,0.4-2.3,1.2c-0.6,0.8-0.8,1.8-0.8,3.1c0,1.3,0.3,2.4,0.8,3.1
	c0.6,0.8,1.3,1.1,2.3,1.1s1.8-0.4,2.3-1.1C457.9,336.3,458.2,335.3,458.2,333.9z M464.4,327.8c0.6-0.2,1.3-0.3,2.3-0.5
	c0.9-0.2,2-0.2,3.1-0.2c1.1,0,2,0.1,2.7,0.4c0.7,0.3,1.3,0.7,1.7,1.2c0.4,0.5,0.7,1.1,0.9,1.9c0.2,0.7,0.3,1.5,0.3,2.4v7.4h-3v-6.9
	c0-0.7-0.1-1.3-0.1-1.8c-0.1-0.5-0.2-0.9-0.5-1.2c-0.2-0.3-0.5-0.5-0.9-0.7c-0.4-0.1-0.8-0.2-1.3-0.2c-0.4,0-0.8,0-1.2,0.1
	c-0.4,0.1-0.7,0.1-0.9,0.1v10.6h-3V327.8z M485.2,326.8c1-0.4,1.9-0.9,2.9-1.5c1-0.6,1.9-1.3,2.6-2.1h2.1v17.3h-3v-13.3
	c-0.5,0.4-1,0.7-1.7,1c-0.7,0.3-1.3,0.6-2,0.8L485.2,326.8z"/>
<path class="st0" d="M402.5,415c2.5,0,4.4,0.5,5.7,1.4c1.3,0.9,2,2.3,2,4.2c0,2.4-1.2,3.9-3.5,4.8c0.3,0.4,0.7,0.9,1.1,1.4
	c0.4,0.5,0.8,1.1,1.2,1.8c0.4,0.6,0.8,1.3,1.2,2c0.4,0.7,0.7,1.3,1,2h-3.5c-0.3-0.6-0.7-1.2-1-1.8c-0.4-0.6-0.7-1.2-1.1-1.8
	c-0.4-0.6-0.7-1.1-1.1-1.6c-0.4-0.5-0.7-1-1-1.4c-0.2,0-0.4,0-0.6,0s-0.3,0-0.5,0h-1.5v6.6h-3.1v-17.1c0.8-0.2,1.6-0.3,2.5-0.3
	C401.1,415,401.8,415,402.5,415z M402.7,417.7c-0.7,0-1.3,0-1.9,0.1v5.6h1.4c0.8,0,1.4,0,2-0.1c0.6-0.1,1.1-0.2,1.5-0.5
	c0.4-0.2,0.7-0.5,0.9-0.9c0.2-0.4,0.3-0.8,0.3-1.4c0-0.5-0.1-1-0.3-1.4c-0.2-0.4-0.5-0.7-0.9-0.9c-0.4-0.2-0.8-0.4-1.3-0.4
	C403.9,417.8,403.4,417.7,402.7,417.7z M412.9,426c0-1.1,0.2-2.2,0.5-3c0.4-0.9,0.8-1.6,1.4-2.2c0.6-0.6,1.2-1,2-1.3
	c0.7-0.3,1.5-0.5,2.2-0.5c1.8,0,3.2,0.6,4.2,1.7c1,1.1,1.5,2.8,1.5,5c0,0.2,0,0.4,0,0.6c0,0.2,0,0.4,0,0.6H416
	c0.1,1,0.5,1.9,1.1,2.4c0.7,0.6,1.6,0.9,2.9,0.9c0.7,0,1.4-0.1,2-0.2c0.6-0.1,1.1-0.3,1.4-0.4l0.4,2.5c-0.2,0.1-0.4,0.2-0.7,0.3
	c-0.3,0.1-0.6,0.2-1,0.2c-0.4,0.1-0.8,0.1-1.2,0.2c-0.4,0-0.9,0.1-1.3,0.1c-1.1,0-2.1-0.2-3-0.5c-0.9-0.4-1.6-0.8-2.1-1.4
	c-0.5-0.6-1-1.3-1.2-2.1C413,427.9,412.9,427,412.9,426z M421.6,424.7c0-0.4-0.1-0.8-0.2-1.2c-0.1-0.4-0.3-0.7-0.5-1
	c-0.2-0.3-0.5-0.5-0.8-0.6c-0.3-0.2-0.7-0.2-1.1-0.2c-0.5,0-0.9,0.1-1.2,0.3c-0.4,0.2-0.6,0.4-0.9,0.7c-0.2,0.3-0.4,0.6-0.6,1
	c-0.1,0.4-0.2,0.7-0.3,1.1H421.6z M430.2,425.6c0,1.3,0.3,2.2,0.8,2.8c0.6,0.6,1.3,0.9,2.2,0.9c0.5,0,0.9-0.1,1.4-0.2
	c0.4-0.1,0.8-0.3,1.1-0.5v-6.8c-0.2-0.1-0.5-0.1-0.8-0.1c-0.3-0.1-0.7-0.1-1.2-0.1c-1.1,0-1.9,0.4-2.5,1.1
	C430.5,423.5,430.2,424.4,430.2,425.6z M438.7,431.2c0,2.1-0.5,3.6-1.6,4.6c-1,1-2.7,1.4-4.9,1.4c-0.8,0-1.6-0.1-2.4-0.2
	c-0.8-0.1-1.4-0.3-2-0.5l0.5-2.6c0.5,0.2,1.1,0.4,1.8,0.5c0.7,0.1,1.4,0.2,2.2,0.2c1.2,0,2.1-0.2,2.6-0.8c0.5-0.5,0.8-1.2,0.8-2.2
	v-0.5c-0.3,0.1-0.7,0.3-1.2,0.4c-0.5,0.2-1,0.2-1.7,0.2c-0.8,0-1.6-0.1-2.3-0.4c-0.7-0.3-1.3-0.7-1.8-1.2c-0.5-0.5-0.9-1.2-1.1-1.9
	c-0.3-0.8-0.4-1.7-0.4-2.7c0-1,0.1-1.8,0.4-2.6c0.3-0.8,0.7-1.5,1.3-2.1c0.6-0.6,1.2-1,2.1-1.3c0.8-0.3,1.7-0.5,2.7-0.5
	c1,0,1.9,0.1,2.8,0.2c0.9,0.1,1.6,0.3,2.2,0.5V431.2z M445.6,432.5h-3v-13.1h3V432.5z M445.9,415.6c0,0.6-0.2,1-0.6,1.4
	c-0.4,0.3-0.8,0.5-1.3,0.5c-0.5,0-1-0.2-1.3-0.5c-0.4-0.3-0.5-0.8-0.5-1.4c0-0.6,0.2-1,0.5-1.4c0.4-0.3,0.8-0.5,1.3-0.5
	c0.5,0,0.9,0.2,1.3,0.5C445.7,414.6,445.9,415,445.9,415.6z M461.3,425.9c0,1-0.2,2-0.5,2.8s-0.7,1.6-1.3,2.2
	c-0.6,0.6-1.2,1.1-2,1.4c-0.8,0.3-1.6,0.5-2.6,0.5c-0.9,0-1.8-0.2-2.5-0.5c-0.8-0.3-1.4-0.8-2-1.4c-0.5-0.6-1-1.3-1.3-2.2
	c-0.3-0.9-0.5-1.8-0.5-2.8c0-1,0.1-2,0.5-2.8c0.3-0.9,0.8-1.6,1.3-2.2c0.6-0.6,1.2-1.1,2-1.4c0.8-0.3,1.6-0.5,2.5-0.5
	c0.9,0,1.8,0.2,2.5,0.5c0.8,0.3,1.4,0.8,2,1.4c0.5,0.6,1,1.3,1.3,2.2C461.1,424,461.3,424.9,461.3,425.9z M458.2,425.9
	c0-1.3-0.3-2.3-0.9-3.1c-0.5-0.8-1.3-1.2-2.3-1.2s-1.8,0.4-2.3,1.2c-0.6,0.8-0.8,1.8-0.8,3.1c0,1.3,0.3,2.4,0.8,3.1
	c0.6,0.8,1.3,1.1,2.3,1.1s1.8-0.4,2.3-1.1C457.9,428.3,458.2,427.3,458.2,425.9z M464.4,419.8c0.6-0.2,1.3-0.3,2.3-0.5
	c0.9-0.2,2-0.2,3.1-0.2c1.1,0,2,0.1,2.7,0.4c0.7,0.3,1.3,0.7,1.7,1.2c0.4,0.5,0.7,1.1,0.9,1.9c0.2,0.7,0.3,1.5,0.3,2.4v7.4h-3v-6.9
	c0-0.7-0.1-1.3-0.1-1.8c-0.1-0.5-0.2-0.9-0.5-1.2c-0.2-0.3-0.5-0.5-0.9-0.7c-0.4-0.1-0.8-0.2-1.3-0.2c-0.4,0-0.8,0-1.2,0.1
	c-0.4,0.1-0.7,0.1-0.9,0.1v10.6h-3V419.8z M494.9,419.7c0,0.6-0.1,1.2-0.4,1.8c-0.2,0.6-0.6,1.1-1,1.7c-0.4,0.5-0.8,1.1-1.3,1.6
	c-0.5,0.5-1,1-1.5,1.5c-0.3,0.2-0.6,0.5-0.9,0.9c-0.3,0.4-0.6,0.7-0.9,1.1c-0.3,0.3-0.6,0.7-0.8,1c-0.2,0.3-0.3,0.6-0.4,0.8h7.7v2.6
	h-11c0-0.1,0-0.3,0-0.5c0-0.2,0-0.4,0-0.5c0-0.8,0.1-1.5,0.4-2.2c0.3-0.7,0.6-1.3,1-1.9c0.4-0.6,0.9-1.1,1.4-1.6
	c0.5-0.5,1-1,1.6-1.5c0.4-0.4,0.8-0.8,1.1-1.1c0.4-0.4,0.7-0.7,1-1.1c0.3-0.4,0.5-0.7,0.7-1.1c0.2-0.4,0.2-0.8,0.2-1.2
	c0-0.9-0.2-1.5-0.8-1.9c-0.5-0.4-1.1-0.5-1.8-0.5c-0.5,0-0.9,0.1-1.3,0.2s-0.8,0.3-1.1,0.5c-0.3,0.2-0.6,0.4-0.8,0.6
	c-0.2,0.2-0.4,0.3-0.5,0.5L484,417c0.7-0.7,1.5-1.2,2.4-1.6c1-0.4,2-0.6,3.1-0.6c1.9,0,3.2,0.4,4.1,1.3
	C494.5,417,494.9,418.2,494.9,419.7z"/>
<path class="st0" d="M402.5,646c2.5,0,4.4,0.5,5.7,1.4c1.3,0.9,2,2.3,2,4.2c0,2.3-1.2,3.9-3.5,4.8c0.3,0.4,0.7,0.9,1.1,1.4
	s0.8,1.1,1.2,1.8c0.4,0.6,0.8,1.3,1.2,2c0.4,0.7,0.7,1.3,1,2h-3.5c-0.3-0.6-0.7-1.2-1-1.8c-0.4-0.6-0.7-1.2-1.1-1.8
	c-0.4-0.6-0.7-1.1-1.1-1.6c-0.4-0.5-0.7-1-1-1.4c-0.2,0-0.4,0-0.6,0s-0.3,0-0.5,0h-1.5v6.5h-3.1v-17.1c0.8-0.2,1.6-0.3,2.5-0.3
	C401.1,646,401.8,646,402.5,646z M402.7,648.7c-0.7,0-1.3,0-1.9,0.1v5.6h1.4c0.8,0,1.4,0,2-0.1c0.6-0.1,1.1-0.2,1.5-0.4
	c0.4-0.2,0.7-0.5,0.9-0.9c0.2-0.4,0.3-0.8,0.3-1.4c0-0.5-0.1-1-0.3-1.3c-0.2-0.4-0.5-0.7-0.9-0.9c-0.4-0.2-0.8-0.4-1.3-0.5
	C403.9,648.8,403.4,648.7,402.7,648.7z M412.9,657c0-1.1,0.2-2.2,0.5-3c0.4-0.9,0.8-1.6,1.4-2.2c0.6-0.6,1.2-1,2-1.3
	c0.7-0.3,1.5-0.5,2.2-0.5c1.8,0,3.2,0.6,4.2,1.7c1,1.1,1.5,2.8,1.5,5c0,0.2,0,0.4,0,0.6c0,0.2,0,0.4,0,0.5H416
	c0.1,1.1,0.5,1.9,1.1,2.5c0.7,0.6,1.6,0.9,2.9,0.9c0.7,0,1.4-0.1,2-0.2c0.6-0.1,1.1-0.3,1.4-0.4l0.4,2.5c-0.2,0.1-0.4,0.2-0.7,0.3
	c-0.3,0.1-0.6,0.2-1,0.2c-0.4,0.1-0.8,0.2-1.2,0.2c-0.4,0-0.9,0.1-1.3,0.1c-1.1,0-2.1-0.2-3-0.5c-0.9-0.4-1.6-0.8-2.1-1.4
	c-0.5-0.6-1-1.3-1.2-2.1C413,658.9,412.9,658,412.9,657z M421.6,655.7c0-0.4-0.1-0.8-0.2-1.2c-0.1-0.4-0.3-0.7-0.5-1
	c-0.2-0.3-0.5-0.5-0.8-0.6c-0.3-0.2-0.7-0.2-1.1-0.2c-0.5,0-0.9,0.1-1.2,0.3c-0.4,0.2-0.6,0.4-0.9,0.7c-0.2,0.3-0.4,0.6-0.6,1
	c-0.1,0.4-0.2,0.7-0.3,1.1H421.6z M430.2,656.6c0,1.3,0.3,2.2,0.8,2.8c0.6,0.6,1.3,0.9,2.2,0.9c0.5,0,0.9-0.1,1.4-0.2
	c0.4-0.1,0.8-0.3,1.1-0.5v-6.8c-0.2,0-0.5-0.1-0.8-0.1c-0.3,0-0.7-0.1-1.2-0.1c-1.1,0-1.9,0.4-2.5,1.1
	C430.5,654.5,430.2,655.4,430.2,656.6z M438.7,662.2c0,2.1-0.5,3.6-1.6,4.6c-1,1-2.7,1.5-4.9,1.5c-0.8,0-1.6-0.1-2.4-0.2
	c-0.8-0.1-1.4-0.3-2-0.5l0.5-2.6c0.5,0.2,1.1,0.4,1.8,0.5c0.7,0.1,1.4,0.2,2.2,0.2c1.2,0,2.1-0.2,2.6-0.8c0.5-0.5,0.8-1.2,0.8-2.2
	v-0.5c-0.3,0.2-0.7,0.3-1.2,0.5c-0.5,0.2-1,0.2-1.7,0.2c-0.8,0-1.6-0.1-2.3-0.4c-0.7-0.3-1.3-0.7-1.8-1.2c-0.5-0.5-0.9-1.2-1.1-1.9
	c-0.3-0.8-0.4-1.7-0.4-2.7c0-1,0.1-1.8,0.4-2.6c0.3-0.8,0.7-1.5,1.3-2c0.6-0.6,1.2-1,2.1-1.3c0.8-0.3,1.7-0.5,2.7-0.5
	c1,0,1.9,0.1,2.8,0.2c0.9,0.1,1.6,0.3,2.2,0.5V662.2z M445.6,663.5h-3v-13.1h3V663.5z M445.9,646.6c0,0.6-0.2,1-0.6,1.4
	c-0.4,0.3-0.8,0.5-1.3,0.5c-0.5,0-1-0.2-1.3-0.5c-0.4-0.3-0.5-0.8-0.5-1.4c0-0.6,0.2-1,0.5-1.4c0.4-0.3,0.8-0.5,1.3-0.5
	c0.5,0,0.9,0.2,1.3,0.5C445.7,645.6,445.9,646,445.9,646.6z M461.3,656.9c0,1-0.2,2-0.5,2.8c-0.3,0.9-0.7,1.6-1.3,2.2
	c-0.6,0.6-1.2,1.1-2,1.4c-0.8,0.3-1.6,0.5-2.6,0.5c-0.9,0-1.8-0.2-2.5-0.5s-1.4-0.8-2-1.4c-0.5-0.6-1-1.3-1.3-2.2
	c-0.3-0.8-0.5-1.8-0.5-2.8c0-1,0.1-2,0.5-2.8c0.3-0.8,0.8-1.6,1.3-2.2c0.6-0.6,1.2-1.1,2-1.4c0.8-0.3,1.6-0.5,2.5-0.5
	c0.9,0,1.8,0.2,2.5,0.5c0.8,0.3,1.4,0.8,2,1.4c0.5,0.6,1,1.3,1.3,2.2C461.1,655,461.3,655.9,461.3,656.9z M458.2,656.9
	c0-1.3-0.3-2.3-0.9-3.1c-0.5-0.8-1.3-1.2-2.3-1.2s-1.8,0.4-2.3,1.2c-0.6,0.8-0.8,1.8-0.8,3.1c0,1.3,0.3,2.4,0.8,3.1
	c0.6,0.8,1.3,1.1,2.3,1.1s1.8-0.4,2.3-1.1C457.9,659.3,458.2,658.3,458.2,656.9z M464.4,650.8c0.6-0.2,1.3-0.3,2.3-0.5
	c0.9-0.2,2-0.2,3.1-0.2c1.1,0,2,0.2,2.7,0.5c0.7,0.3,1.3,0.7,1.7,1.2c0.4,0.5,0.7,1.1,0.9,1.9c0.2,0.7,0.3,1.5,0.3,2.4v7.4h-3v-6.9
	c0-0.7-0.1-1.3-0.1-1.8c-0.1-0.5-0.2-0.9-0.5-1.2c-0.2-0.3-0.5-0.5-0.9-0.7c-0.4-0.1-0.8-0.2-1.3-0.2c-0.4,0-0.8,0-1.2,0.1
	c-0.4,0-0.7,0.1-0.9,0.1v10.5h-3V650.8z M484.8,650.8c0.6-0.2,1.3-0.3,2.3-0.5c0.9-0.2,2-0.2,3.1-0.2c1.1,0,2,0.2,2.7,0.5
	c0.7,0.3,1.3,0.7,1.7,1.2c0.4,0.5,0.7,1.1,0.9,1.9c0.2,0.7,0.3,1.5,0.3,2.4v7.4h-3v-6.9c0-0.7,0-1.3-0.1-1.8
	c-0.1-0.5-0.2-0.9-0.4-1.2c-0.2-0.3-0.5-0.5-0.9-0.7c-0.4-0.1-0.8-0.2-1.3-0.2c-0.4,0-0.8,0-1.2,0.1c-0.4,0-0.7,0.1-0.9,0.1v10.5h-3
	V650.8z"/>
<path class="st9" d="M650,610.5h221c1.1,0,2,0.9,2,2v73c0,1.1-0.9,2-2,2H650c-1.1,0-2-0.9-2-2v-73C648,611.4,648.9,610.5,650,610.5z
	"/>
<path class="st0" d="M718.5,641c2.5,0,4.4,0.5,5.7,1.4c1.3,0.9,2,2.3,2,4.2c0,2.3-1.2,3.9-3.5,4.8c0.3,0.4,0.7,0.9,1.1,1.4
	c0.4,0.5,0.8,1.1,1.2,1.8c0.4,0.6,0.8,1.3,1.2,2c0.4,0.7,0.7,1.3,1,2h-3.5c-0.3-0.6-0.7-1.2-1-1.8c-0.4-0.6-0.7-1.2-1.1-1.8
	c-0.4-0.6-0.7-1.1-1.1-1.6c-0.4-0.5-0.7-1-1-1.4c-0.2,0-0.4,0-0.6,0s-0.3,0-0.5,0h-1.5v6.5h-3.2v-17.1c0.8-0.2,1.6-0.3,2.5-0.3
	C717.1,641,717.8,641,718.5,641z M718.7,643.7c-0.7,0-1.3,0-1.8,0.1v5.6h1.4c0.8,0,1.4,0,2-0.1c0.6-0.1,1.1-0.2,1.4-0.4
	c0.4-0.2,0.7-0.5,0.9-0.9s0.3-0.8,0.3-1.4c0-0.5-0.1-1-0.3-1.3s-0.5-0.7-0.9-0.9c-0.4-0.2-0.8-0.4-1.3-0.5
	C719.9,643.8,719.4,643.7,718.7,643.7z M728.9,652c0-1.1,0.2-2.2,0.5-3c0.3-0.9,0.8-1.6,1.4-2.2c0.6-0.6,1.2-1,2-1.3
	c0.7-0.3,1.5-0.5,2.2-0.5c1.8,0,3.2,0.6,4.2,1.7c1,1.1,1.5,2.8,1.5,5c0,0.2,0,0.4,0,0.6c0,0.2,0,0.4,0,0.5H732
	c0.1,1.1,0.5,1.9,1.1,2.5c0.7,0.6,1.6,0.9,2.9,0.9c0.7,0,1.4-0.1,2-0.2c0.6-0.1,1.1-0.3,1.5-0.4l0.4,2.5c-0.2,0.1-0.4,0.2-0.7,0.3
	c-0.3,0.1-0.6,0.2-1,0.2c-0.4,0.1-0.8,0.2-1.2,0.2s-0.9,0.1-1.3,0.1c-1.1,0-2.1-0.2-3-0.5c-0.8-0.4-1.5-0.8-2.1-1.4
	c-0.5-0.6-1-1.3-1.2-2.1C729,653.9,728.9,653,728.9,652z M737.6,650.7c0-0.4-0.1-0.8-0.2-1.2c-0.1-0.4-0.3-0.7-0.5-1
	c-0.2-0.3-0.5-0.5-0.8-0.6c-0.3-0.2-0.7-0.2-1.2-0.2c-0.5,0-0.9,0.1-1.2,0.3c-0.3,0.2-0.7,0.4-0.9,0.7c-0.2,0.3-0.4,0.6-0.5,1
	s-0.2,0.7-0.3,1.1H737.6z M746.2,651.6c0,1.3,0.3,2.2,0.8,2.8c0.6,0.6,1.3,0.9,2.2,0.9c0.5,0,0.9-0.1,1.3-0.2c0.4-0.1,0.8-0.3,1-0.5
	v-6.8c-0.2,0-0.5-0.1-0.8-0.1c-0.3,0-0.7-0.1-1.2-0.1c-1.1,0-1.9,0.4-2.5,1.1C746.5,649.5,746.2,650.4,746.2,651.6z M754.7,657.2
	c0,2.1-0.5,3.6-1.6,4.6c-1,1-2.7,1.5-4.8,1.5c-0.8,0-1.6-0.1-2.3-0.2c-0.8-0.1-1.4-0.3-2.1-0.5l0.6-2.6c0.5,0.2,1.1,0.4,1.8,0.5
	c0.7,0.1,1.4,0.2,2.1,0.2c1.2,0,2.1-0.2,2.6-0.8c0.5-0.5,0.8-1.2,0.8-2.2v-0.5c-0.3,0.2-0.7,0.3-1.2,0.5c-0.5,0.2-1,0.2-1.7,0.2
	c-0.8,0-1.6-0.1-2.3-0.4c-0.7-0.3-1.3-0.7-1.8-1.2c-0.5-0.5-0.9-1.2-1.1-1.9c-0.3-0.8-0.4-1.7-0.4-2.7c0-1,0.1-1.8,0.4-2.6
	c0.3-0.8,0.7-1.5,1.3-2c0.6-0.6,1.2-1,2-1.3s1.7-0.5,2.7-0.5c1,0,1.9,0.1,2.8,0.2c0.9,0.1,1.6,0.3,2.2,0.5V657.2z M761.6,658.5h-3
	v-13.1h3V658.5z M761.9,641.6c0,0.6-0.2,1-0.5,1.4c-0.4,0.3-0.8,0.5-1.3,0.5c-0.5,0-1-0.2-1.3-0.5c-0.4-0.3-0.5-0.8-0.5-1.4
	c0-0.6,0.2-1,0.5-1.4c0.4-0.3,0.8-0.5,1.3-0.5c0.5,0,0.9,0.2,1.3,0.5C761.7,640.6,761.9,641,761.9,641.6z M777.3,651.9
	c0,1-0.2,2-0.5,2.8c-0.3,0.9-0.7,1.6-1.3,2.2c-0.5,0.6-1.2,1.1-2,1.4c-0.8,0.3-1.6,0.5-2.5,0.5s-1.8-0.2-2.5-0.5
	c-0.8-0.3-1.4-0.8-2-1.4c-0.6-0.6-1-1.3-1.3-2.2c-0.3-0.8-0.4-1.8-0.4-2.8c0-1,0.1-2,0.4-2.8c0.3-0.8,0.8-1.6,1.3-2.2
	c0.6-0.6,1.2-1.1,2-1.4c0.8-0.3,1.6-0.5,2.5-0.5s1.8,0.2,2.5,0.5c0.8,0.3,1.5,0.8,2,1.4c0.5,0.6,1,1.3,1.3,2.2
	C777.1,650,777.3,650.9,777.3,651.9z M774.2,651.9c0-1.3-0.3-2.3-0.8-3.1c-0.5-0.8-1.3-1.2-2.3-1.2s-1.8,0.4-2.3,1.2
	c-0.5,0.8-0.8,1.8-0.8,3.1c0,1.3,0.3,2.4,0.8,3.1c0.6,0.8,1.3,1.1,2.3,1.1s1.8-0.4,2.3-1.1C773.9,654.3,774.2,653.3,774.2,651.9z
	 M780.4,645.8c0.6-0.2,1.3-0.3,2.3-0.5c0.9-0.2,2-0.2,3.1-0.2c1.1,0,2,0.2,2.7,0.5c0.7,0.3,1.3,0.7,1.7,1.2c0.4,0.5,0.7,1.1,0.9,1.9
	c0.2,0.7,0.3,1.5,0.3,2.4v7.4h-3v-6.9c0-0.7,0-1.3-0.2-1.8c-0.1-0.5-0.2-0.9-0.4-1.2c-0.2-0.3-0.5-0.5-0.9-0.7
	c-0.3-0.1-0.8-0.2-1.3-0.2c-0.4,0-0.8,0-1.2,0.1c-0.4,0-0.7,0.1-0.9,0.1v10.5h-3V645.8z M800.8,645.8c0.6-0.2,1.3-0.3,2.3-0.5
	c0.9-0.2,2-0.2,3.1-0.2c1.1,0,2,0.2,2.7,0.5c0.7,0.3,1.3,0.7,1.7,1.2c0.4,0.5,0.7,1.1,0.9,1.9c0.2,0.7,0.3,1.5,0.3,2.4v7.4h-3v-6.9
	c0-0.7,0-1.3-0.1-1.8c-0.1-0.5-0.2-0.9-0.5-1.2c-0.2-0.3-0.5-0.5-0.9-0.7c-0.3-0.1-0.8-0.2-1.3-0.2c-0.4,0-0.8,0-1.2,0.1
	c-0.4,0-0.7,0.1-0.9,0.1v10.5h-3V645.8z"/>
<path class="st0" d="M716.5,323c2.5,0,4.4,0.5,5.7,1.4c1.3,0.9,2,2.3,2,4.2c0,2.4-1.2,3.9-3.5,4.8c0.3,0.4,0.7,0.9,1.1,1.4
	c0.4,0.5,0.8,1.1,1.2,1.8c0.4,0.6,0.8,1.3,1.2,2c0.4,0.7,0.7,1.3,1,2h-3.5c-0.3-0.6-0.7-1.2-1-1.8c-0.4-0.6-0.7-1.2-1.1-1.8
	c-0.4-0.6-0.7-1.1-1.1-1.6c-0.4-0.5-0.7-1-1-1.4c-0.2,0-0.4,0-0.6,0s-0.3,0-0.5,0h-1.5v6.6h-3.2v-17.1c0.8-0.2,1.6-0.3,2.5-0.3
	C715.1,323,715.8,323,716.5,323z M716.7,325.7c-0.7,0-1.3,0-1.8,0.1v5.6h1.4c0.8,0,1.4,0,2-0.1s1.1-0.2,1.5-0.5
	c0.4-0.2,0.7-0.5,0.9-0.9c0.2-0.4,0.3-0.8,0.3-1.4c0-0.5-0.1-1-0.3-1.4c-0.2-0.4-0.5-0.7-0.9-0.9c-0.4-0.2-0.8-0.4-1.3-0.4
	C717.9,325.8,717.4,325.7,716.7,325.7z M726.9,334c0-1.1,0.2-2.2,0.5-3c0.3-0.9,0.8-1.6,1.4-2.2c0.6-0.6,1.2-1,1.9-1.3
	c0.7-0.3,1.5-0.5,2.2-0.5c1.8,0,3.2,0.6,4.2,1.7c1,1.1,1.5,2.8,1.5,5c0,0.2,0,0.4,0,0.6c0,0.2,0,0.4,0,0.6H730
	c0.1,1,0.4,1.9,1.1,2.4c0.7,0.6,1.6,0.9,2.9,0.9c0.7,0,1.4-0.1,2-0.2c0.6-0.1,1.1-0.3,1.5-0.4l0.4,2.5c-0.2,0.1-0.4,0.2-0.7,0.3
	c-0.3,0.1-0.6,0.2-1,0.2c-0.4,0.1-0.8,0.1-1.2,0.2c-0.4,0-0.9,0.1-1.3,0.1c-1.2,0-2.2-0.2-3-0.5c-0.8-0.4-1.5-0.8-2.1-1.4
	c-0.6-0.6-1-1.3-1.2-2.1C727,335.9,726.9,335,726.9,334z M735.6,332.7c0-0.4-0.1-0.8-0.2-1.2c-0.1-0.4-0.3-0.7-0.5-1
	c-0.2-0.3-0.5-0.5-0.8-0.6c-0.3-0.2-0.7-0.2-1.2-0.2c-0.5,0-0.9,0.1-1.2,0.3c-0.4,0.2-0.7,0.4-0.9,0.7c-0.2,0.3-0.4,0.6-0.5,1
	s-0.2,0.7-0.3,1.1H735.6z M744.2,333.6c0,1.3,0.3,2.2,0.8,2.8c0.6,0.6,1.3,0.9,2.2,0.9c0.5,0,0.9-0.1,1.4-0.2c0.4-0.1,0.8-0.3,1-0.5
	v-6.8c-0.2-0.1-0.5-0.1-0.8-0.1c-0.3-0.1-0.7-0.1-1.2-0.1c-1.1,0-1.9,0.4-2.5,1.1C744.5,331.5,744.2,332.4,744.2,333.6z
	 M752.7,339.2c0,2.1-0.5,3.6-1.6,4.6c-1,1-2.7,1.4-4.8,1.4c-0.8,0-1.6-0.1-2.4-0.2c-0.8-0.1-1.4-0.3-2-0.5l0.5-2.6
	c0.5,0.2,1.1,0.4,1.8,0.5c0.7,0.1,1.4,0.2,2.2,0.2c1.2,0,2.1-0.2,2.6-0.8c0.5-0.5,0.8-1.2,0.8-2.2v-0.5c-0.3,0.1-0.7,0.3-1.2,0.4
	c-0.5,0.2-1,0.2-1.7,0.2c-0.8,0-1.6-0.1-2.3-0.4c-0.7-0.3-1.3-0.7-1.8-1.2c-0.5-0.5-0.9-1.2-1.1-1.9c-0.3-0.8-0.4-1.7-0.4-2.7
	c0-1,0.1-1.8,0.4-2.6c0.3-0.8,0.7-1.5,1.3-2.1c0.6-0.6,1.2-1,2-1.3c0.8-0.3,1.7-0.5,2.7-0.5c1,0,1.9,0.1,2.8,0.2
	c0.9,0.1,1.6,0.3,2.2,0.5V339.2z M759.6,340.5h-3v-13.1h3V340.5z M759.9,323.6c0,0.6-0.2,1-0.6,1.4c-0.4,0.3-0.8,0.5-1.3,0.5
	c-0.5,0-1-0.2-1.3-0.5c-0.4-0.3-0.5-0.8-0.5-1.4c0-0.6,0.2-1,0.5-1.4c0.4-0.3,0.8-0.5,1.3-0.5c0.5,0,0.9,0.2,1.3,0.5
	C759.7,322.6,759.9,323,759.9,323.6z M775.3,333.9c0,1-0.1,2-0.4,2.8c-0.3,0.9-0.7,1.6-1.3,2.2s-1.2,1.1-2,1.4
	c-0.8,0.3-1.6,0.5-2.5,0.5s-1.8-0.2-2.5-0.5c-0.8-0.3-1.4-0.8-2-1.4s-1-1.3-1.3-2.2c-0.3-0.9-0.5-1.8-0.5-2.8c0-1,0.2-2,0.5-2.8
	c0.3-0.9,0.8-1.6,1.3-2.2c0.6-0.6,1.2-1.1,2-1.4c0.8-0.3,1.6-0.5,2.5-0.5s1.8,0.2,2.5,0.5c0.8,0.3,1.5,0.8,2,1.4
	c0.6,0.6,1,1.3,1.3,2.2C775.1,332,775.3,332.9,775.3,333.9z M772.2,333.9c0-1.3-0.3-2.3-0.8-3.1c-0.6-0.8-1.3-1.2-2.3-1.2
	s-1.8,0.4-2.4,1.2c-0.5,0.8-0.8,1.8-0.8,3.1c0,1.3,0.3,2.4,0.8,3.1c0.6,0.8,1.4,1.1,2.4,1.1s1.8-0.4,2.3-1.1
	C771.9,336.3,772.2,335.3,772.2,333.9z M778.4,327.8c0.6-0.2,1.3-0.3,2.3-0.5c0.9-0.2,2-0.2,3.1-0.2c1.1,0,2,0.1,2.7,0.4
	c0.7,0.3,1.3,0.7,1.7,1.2c0.4,0.5,0.7,1.1,0.9,1.9c0.2,0.7,0.3,1.5,0.3,2.4v7.4h-3v-6.9c0-0.7-0.1-1.3-0.2-1.8
	c-0.1-0.5-0.2-0.9-0.5-1.2c-0.2-0.3-0.5-0.5-0.8-0.7c-0.4-0.1-0.8-0.2-1.3-0.2c-0.4,0-0.8,0-1.2,0.1c-0.4,0.1-0.7,0.1-0.9,0.1v10.6
	h-3V327.8z M808.9,327.7c0,0.6-0.1,1.2-0.4,1.8c-0.2,0.6-0.6,1.1-1,1.7c-0.4,0.5-0.8,1.1-1.3,1.6c-0.5,0.5-1,1-1.5,1.5
	c-0.3,0.2-0.6,0.5-0.9,0.9c-0.3,0.4-0.7,0.7-1,1.1c-0.3,0.3-0.6,0.7-0.8,1c-0.2,0.3-0.3,0.6-0.3,0.8h7.7v2.6h-11c0-0.1,0-0.3,0-0.5
	c0-0.2,0-0.4,0-0.5c0-0.8,0.1-1.5,0.4-2.2c0.3-0.7,0.6-1.3,1-1.9c0.4-0.6,0.9-1.1,1.4-1.6c0.5-0.5,1-1,1.5-1.5
	c0.4-0.4,0.8-0.8,1.2-1.1c0.4-0.4,0.7-0.7,0.9-1.1c0.3-0.4,0.5-0.7,0.7-1.1c0.2-0.4,0.2-0.8,0.2-1.2c0-0.9-0.2-1.5-0.8-1.9
	c-0.5-0.4-1.1-0.5-1.8-0.5c-0.5,0-0.9,0.1-1.3,0.2c-0.4,0.1-0.8,0.3-1.1,0.5c-0.3,0.2-0.6,0.4-0.8,0.6c-0.2,0.2-0.4,0.3-0.5,0.5
	L798,325c0.7-0.7,1.5-1.2,2.5-1.6c1-0.4,2-0.6,3-0.6c1.8,0,3.2,0.4,4.1,1.3C808.5,325,808.9,326.2,808.9,327.7z"/>
<path class="st0" d="M716.5,415c2.5,0,4.4,0.5,5.7,1.4c1.3,0.9,2,2.3,2,4.2c0,2.4-1.2,3.9-3.5,4.8c0.3,0.4,0.7,0.9,1.1,1.4
	c0.4,0.5,0.8,1.1,1.2,1.8c0.4,0.6,0.8,1.3,1.2,2c0.4,0.7,0.7,1.3,1,2h-3.5c-0.3-0.6-0.7-1.2-1-1.8c-0.4-0.6-0.7-1.2-1.1-1.8
	c-0.4-0.6-0.7-1.1-1.1-1.6c-0.4-0.5-0.7-1-1-1.4c-0.2,0-0.4,0-0.6,0s-0.3,0-0.5,0h-1.5v6.6h-3.2v-17.1c0.8-0.2,1.6-0.3,2.5-0.3
	C715.1,415,715.8,415,716.5,415z M716.7,417.7c-0.7,0-1.3,0-1.8,0.1v5.6h1.4c0.8,0,1.4,0,2-0.1s1.1-0.2,1.5-0.5
	c0.4-0.2,0.7-0.5,0.9-0.9c0.2-0.4,0.3-0.8,0.3-1.4c0-0.5-0.1-1-0.3-1.4c-0.2-0.4-0.5-0.7-0.9-0.9c-0.4-0.2-0.8-0.4-1.3-0.4
	C717.9,417.8,717.4,417.7,716.7,417.7z M726.9,426c0-1.1,0.2-2.2,0.5-3c0.3-0.9,0.8-1.6,1.4-2.2c0.6-0.6,1.2-1,1.9-1.3
	c0.7-0.3,1.5-0.5,2.2-0.5c1.8,0,3.2,0.6,4.2,1.7c1,1.1,1.5,2.8,1.5,5c0,0.2,0,0.4,0,0.6c0,0.2,0,0.4,0,0.6H730
	c0.1,1,0.4,1.9,1.1,2.4c0.7,0.6,1.6,0.9,2.9,0.9c0.7,0,1.4-0.1,2-0.2c0.6-0.1,1.1-0.3,1.5-0.4l0.4,2.5c-0.2,0.1-0.4,0.2-0.7,0.3
	c-0.3,0.1-0.6,0.2-1,0.2c-0.4,0.1-0.8,0.1-1.2,0.2c-0.4,0-0.9,0.1-1.3,0.1c-1.2,0-2.2-0.2-3-0.5c-0.8-0.4-1.5-0.8-2.1-1.4
	c-0.6-0.6-1-1.3-1.2-2.1C727,427.9,726.9,427,726.9,426z M735.6,424.7c0-0.4-0.1-0.8-0.2-1.2c-0.1-0.4-0.3-0.7-0.5-1
	c-0.2-0.3-0.5-0.5-0.8-0.6c-0.3-0.2-0.7-0.2-1.2-0.2c-0.5,0-0.9,0.1-1.2,0.3c-0.4,0.2-0.7,0.4-0.9,0.7c-0.2,0.3-0.4,0.6-0.5,1
	s-0.2,0.7-0.3,1.1H735.6z M744.2,425.6c0,1.3,0.3,2.2,0.8,2.8c0.6,0.6,1.3,0.9,2.2,0.9c0.5,0,0.9-0.1,1.4-0.2c0.4-0.1,0.8-0.3,1-0.5
	v-6.8c-0.2-0.1-0.5-0.1-0.8-0.1c-0.3-0.1-0.7-0.1-1.2-0.1c-1.1,0-1.9,0.4-2.5,1.1C744.5,423.5,744.2,424.4,744.2,425.6z
	 M752.7,431.2c0,2.1-0.5,3.6-1.6,4.6c-1,1-2.7,1.4-4.8,1.4c-0.8,0-1.6-0.1-2.4-0.2c-0.8-0.1-1.4-0.3-2-0.5l0.5-2.6
	c0.5,0.2,1.1,0.4,1.8,0.5c0.7,0.1,1.4,0.2,2.2,0.2c1.2,0,2.1-0.2,2.6-0.8c0.5-0.5,0.8-1.2,0.8-2.2v-0.5c-0.3,0.1-0.7,0.3-1.2,0.4
	c-0.5,0.2-1,0.2-1.7,0.2c-0.8,0-1.6-0.1-2.3-0.4c-0.7-0.3-1.3-0.7-1.8-1.2c-0.5-0.5-0.9-1.2-1.1-1.9c-0.3-0.8-0.4-1.7-0.4-2.7
	c0-1,0.1-1.8,0.4-2.6c0.3-0.8,0.7-1.5,1.3-2.1c0.6-0.6,1.2-1,2-1.3c0.8-0.3,1.7-0.5,2.7-0.5c1,0,1.9,0.1,2.8,0.2
	c0.9,0.1,1.6,0.3,2.2,0.5V431.2z M759.6,432.5h-3v-13.1h3V432.5z M759.9,415.6c0,0.6-0.2,1-0.6,1.4c-0.4,0.3-0.8,0.5-1.3,0.5
	c-0.5,0-1-0.2-1.3-0.5c-0.4-0.3-0.5-0.8-0.5-1.4c0-0.6,0.2-1,0.5-1.4c0.4-0.3,0.8-0.5,1.3-0.5c0.5,0,0.9,0.2,1.3,0.5
	C759.7,414.6,759.9,415,759.9,415.6z M775.3,425.9c0,1-0.1,2-0.4,2.8c-0.3,0.9-0.7,1.6-1.3,2.2s-1.2,1.1-2,1.4
	c-0.8,0.3-1.6,0.5-2.5,0.5s-1.8-0.2-2.5-0.5c-0.8-0.3-1.4-0.8-2-1.4s-1-1.3-1.3-2.2c-0.3-0.9-0.5-1.8-0.5-2.8c0-1,0.2-2,0.5-2.8
	c0.3-0.9,0.8-1.6,1.3-2.2c0.6-0.6,1.2-1.1,2-1.4c0.8-0.3,1.6-0.5,2.5-0.5s1.8,0.2,2.5,0.5c0.8,0.3,1.5,0.8,2,1.4
	c0.6,0.6,1,1.3,1.3,2.2C775.1,424,775.3,424.9,775.3,425.9z M772.2,425.9c0-1.3-0.3-2.3-0.8-3.1c-0.6-0.8-1.3-1.2-2.3-1.2
	s-1.8,0.4-2.4,1.2c-0.5,0.8-0.8,1.8-0.8,3.1c0,1.3,0.3,2.4,0.8,3.1c0.6,0.8,1.4,1.1,2.4,1.1s1.8-0.4,2.3-1.1
	C771.9,428.3,772.2,427.3,772.2,425.9z M778.4,419.8c0.6-0.2,1.3-0.3,2.3-0.5c0.9-0.2,2-0.2,3.1-0.2c1.1,0,2,0.1,2.7,0.4
	c0.7,0.3,1.3,0.7,1.7,1.2c0.4,0.5,0.7,1.1,0.9,1.9c0.2,0.7,0.3,1.5,0.3,2.4v7.4h-3v-6.9c0-0.7-0.1-1.3-0.2-1.8
	c-0.1-0.5-0.2-0.9-0.5-1.2c-0.2-0.3-0.5-0.5-0.8-0.7c-0.4-0.1-0.8-0.2-1.3-0.2c-0.4,0-0.8,0-1.2,0.1c-0.4,0.1-0.7,0.1-0.9,0.1v10.6
	h-3V419.8z M805.3,418.9c-0.4,0.5-0.8,1-1.2,1.5c-0.4,0.6-0.8,1.1-1.2,1.7c-0.4,0.6-0.8,1.2-1.2,1.9c-0.4,0.6-0.7,1.2-1,1.9h4.6
	V418.9z M808.3,415.2v10.7h2v2.5h-2v4.2h-3v-4.2h-7.6v-2.1c0.3-0.7,0.8-1.6,1.3-2.5c0.6-1,1.2-1.9,1.9-2.9c0.7-1,1.4-2,2.2-3
	c0.8-1,1.5-1.8,2.3-2.6H808.3z"/>
<path class="st0" d="M716.5,508c2.5,0,4.4,0.5,5.7,1.4c1.3,0.9,2,2.3,2,4.2c0,2.3-1.2,3.9-3.5,4.8c0.3,0.4,0.7,0.9,1.1,1.4
	c0.4,0.5,0.8,1.1,1.2,1.8c0.4,0.6,0.8,1.3,1.2,2c0.4,0.7,0.7,1.3,1,2h-3.5c-0.3-0.6-0.7-1.2-1-1.8c-0.4-0.6-0.7-1.2-1.1-1.8
	c-0.4-0.6-0.7-1.1-1.1-1.6c-0.4-0.5-0.7-1-1-1.4c-0.2,0-0.4,0-0.6,0s-0.3,0-0.5,0h-1.5v6.5h-3.2v-17.1c0.8-0.2,1.6-0.3,2.5-0.3
	C715.1,508,715.8,508,716.5,508z M716.7,510.7c-0.7,0-1.3,0-1.8,0.1v5.6h1.4c0.8,0,1.4,0,2-0.1c0.6-0.1,1.1-0.2,1.5-0.4
	c0.4-0.2,0.7-0.5,0.9-0.9c0.2-0.4,0.3-0.8,0.3-1.4c0-0.5-0.1-1-0.3-1.3c-0.2-0.4-0.5-0.7-0.9-0.9c-0.4-0.2-0.8-0.4-1.3-0.4
	C717.9,510.8,717.4,510.7,716.7,510.7z M726.9,519c0-1.1,0.2-2.2,0.5-3c0.3-0.9,0.8-1.6,1.4-2.2c0.6-0.6,1.2-1,1.9-1.3
	c0.7-0.3,1.5-0.5,2.2-0.5c1.8,0,3.2,0.6,4.2,1.7c1,1.1,1.5,2.8,1.5,5c0,0.2,0,0.4,0,0.6c0,0.2,0,0.4,0,0.5H730
	c0.1,1.1,0.4,1.9,1.1,2.5c0.7,0.6,1.6,0.9,2.9,0.9c0.7,0,1.4-0.1,2-0.2c0.6-0.1,1.1-0.3,1.5-0.4l0.4,2.5c-0.2,0.1-0.4,0.2-0.7,0.3
	c-0.3,0.1-0.6,0.2-1,0.2c-0.4,0.1-0.8,0.2-1.2,0.2s-0.9,0.1-1.3,0.1c-1.2,0-2.2-0.2-3-0.5c-0.8-0.4-1.5-0.8-2.1-1.4
	c-0.6-0.6-1-1.3-1.2-2.1C727,520.9,726.9,520,726.9,519z M735.6,517.7c0-0.4-0.1-0.8-0.2-1.2c-0.1-0.4-0.3-0.7-0.5-1
	c-0.2-0.3-0.5-0.5-0.8-0.6c-0.3-0.2-0.7-0.2-1.2-0.2c-0.5,0-0.9,0.1-1.2,0.3c-0.4,0.2-0.7,0.4-0.9,0.7c-0.2,0.3-0.4,0.6-0.5,1
	s-0.2,0.7-0.3,1.1H735.6z M744.2,518.6c0,1.3,0.3,2.2,0.8,2.8c0.6,0.6,1.3,0.9,2.2,0.9c0.5,0,0.9-0.1,1.4-0.2c0.4-0.1,0.8-0.3,1-0.5
	v-6.8c-0.2,0-0.5-0.1-0.8-0.1c-0.3,0-0.7-0.1-1.2-0.1c-1.1,0-1.9,0.4-2.5,1.1C744.5,516.5,744.2,517.4,744.2,518.6z M752.7,524.2
	c0,2.1-0.5,3.6-1.6,4.6c-1,1-2.7,1.5-4.8,1.5c-0.8,0-1.6-0.1-2.4-0.2c-0.8-0.1-1.4-0.3-2-0.5l0.5-2.6c0.5,0.2,1.1,0.4,1.8,0.5
	c0.7,0.1,1.4,0.2,2.2,0.2c1.2,0,2.1-0.2,2.6-0.8c0.5-0.5,0.8-1.2,0.8-2.2v-0.5c-0.3,0.2-0.7,0.3-1.2,0.5c-0.5,0.2-1,0.2-1.7,0.2
	c-0.8,0-1.6-0.1-2.3-0.4c-0.7-0.3-1.3-0.7-1.8-1.2c-0.5-0.5-0.9-1.2-1.1-1.9c-0.3-0.8-0.4-1.7-0.4-2.7c0-1,0.1-1.8,0.4-2.6
	c0.3-0.8,0.7-1.5,1.3-2c0.6-0.6,1.2-1,2-1.3s1.7-0.5,2.7-0.5c1,0,1.9,0.1,2.8,0.2c0.9,0.1,1.6,0.3,2.2,0.5V524.2z M759.6,525.5h-3
	v-13.1h3V525.5z M759.9,508.6c0,0.6-0.2,1-0.6,1.4c-0.4,0.3-0.8,0.5-1.3,0.5c-0.5,0-1-0.2-1.3-0.5c-0.4-0.3-0.5-0.8-0.5-1.4
	c0-0.6,0.2-1,0.5-1.4c0.4-0.3,0.8-0.5,1.3-0.5c0.5,0,0.9,0.2,1.3,0.5C759.7,507.6,759.9,508,759.9,508.6z M775.3,518.9
	c0,1-0.1,2-0.4,2.8c-0.3,0.9-0.7,1.6-1.3,2.2c-0.5,0.6-1.2,1.1-2,1.4c-0.8,0.3-1.6,0.5-2.5,0.5s-1.8-0.2-2.5-0.5
	c-0.8-0.3-1.4-0.8-2-1.4c-0.5-0.6-1-1.3-1.3-2.2c-0.3-0.8-0.5-1.8-0.5-2.8c0-1,0.2-2,0.5-2.8c0.3-0.8,0.8-1.6,1.3-2.2
	c0.6-0.6,1.2-1.1,2-1.4c0.8-0.3,1.6-0.5,2.5-0.5s1.8,0.2,2.5,0.5c0.8,0.3,1.5,0.8,2,1.4c0.6,0.6,1,1.3,1.3,2.2
	C775.1,517,775.3,517.9,775.3,518.9z M772.2,518.9c0-1.3-0.3-2.3-0.8-3.1c-0.6-0.8-1.3-1.2-2.3-1.2s-1.8,0.4-2.4,1.2
	c-0.5,0.8-0.8,1.8-0.8,3.1c0,1.3,0.3,2.4,0.8,3.1c0.6,0.8,1.4,1.1,2.4,1.1s1.8-0.4,2.3-1.1C771.9,521.3,772.2,520.3,772.2,518.9z
	 M778.4,512.8c0.6-0.2,1.3-0.3,2.3-0.5c0.9-0.2,2-0.2,3.1-0.2c1.1,0,2,0.2,2.7,0.5c0.7,0.3,1.3,0.7,1.7,1.2c0.4,0.5,0.7,1.1,0.9,1.9
	c0.2,0.7,0.3,1.5,0.3,2.4v7.4h-3v-6.9c0-0.7-0.1-1.3-0.2-1.8c-0.1-0.5-0.2-0.9-0.5-1.2c-0.2-0.3-0.5-0.5-0.8-0.7
	c-0.4-0.1-0.8-0.2-1.3-0.2c-0.4,0-0.8,0-1.2,0.1c-0.4,0-0.7,0.1-0.9,0.1v10.5h-3V512.8z M802.8,525.9c-0.5,0-0.9,0-1.4-0.1
	c-0.5,0-0.9-0.1-1.3-0.2c-0.4-0.1-0.8-0.2-1.2-0.3c-0.3-0.1-0.6-0.2-0.8-0.3l0.6-2.6c0.4,0.2,0.9,0.4,1.5,0.6
	c0.7,0.2,1.5,0.3,2.5,0.3c1.3,0,2.3-0.2,2.9-0.8c0.6-0.5,0.9-1.2,0.9-2c0-0.6-0.1-1-0.4-1.4c-0.2-0.4-0.5-0.7-0.9-0.9
	c-0.4-0.2-0.8-0.4-1.3-0.5c-0.5-0.1-1-0.1-1.6-0.1h-1v-2.5h1.2c0.4,0,0.8,0,1.1-0.1c0.4-0.1,0.8-0.2,1.1-0.4
	c0.3-0.2,0.6-0.5,0.8-0.8c0.2-0.3,0.3-0.7,0.3-1.2c0-0.4-0.1-0.7-0.2-1c-0.1-0.3-0.3-0.5-0.6-0.7c-0.2-0.2-0.5-0.3-0.8-0.4
	c-0.3-0.1-0.6-0.1-1-0.1c-0.8,0-1.4,0.1-2,0.3c-0.6,0.2-1.1,0.5-1.5,0.8l-1.1-2.2c0.2-0.1,0.5-0.3,0.8-0.5c0.3-0.2,0.7-0.3,1.1-0.5
	c0.4-0.1,0.9-0.3,1.3-0.4c0.5-0.1,1-0.1,1.5-0.1c1,0,1.8,0.1,2.5,0.4c0.7,0.2,1.3,0.6,1.7,1c0.5,0.4,0.8,0.9,1,1.5
	c0.2,0.6,0.3,1.2,0.3,1.9c0,0.8-0.2,1.5-0.7,2.1c-0.4,0.6-1,1.1-1.7,1.5c0.9,0.3,1.6,0.8,2.2,1.6c0.6,0.7,0.9,1.7,0.9,2.8
	c0,0.8-0.1,1.5-0.4,2.1c-0.3,0.7-0.7,1.2-1.2,1.7c-0.5,0.5-1.2,0.8-2.1,1.1C805,525.7,804,525.9,802.8,525.9z"/>
<path class="st0" d="M1030.5,323c2.5,0,4.4,0.5,5.7,1.4c1.3,0.9,2,2.3,2,4.2c0,2.4-1.2,3.9-3.5,4.8c0.3,0.4,0.7,0.9,1.1,1.4
	c0.4,0.5,0.8,1.1,1.2,1.8c0.4,0.6,0.8,1.3,1.2,2c0.4,0.7,0.7,1.3,1,2h-3.5c-0.3-0.6-0.7-1.2-1-1.8c-0.4-0.6-0.7-1.2-1.1-1.8
	c-0.4-0.6-0.7-1.1-1.1-1.6c-0.4-0.5-0.7-1-1-1.4c-0.2,0-0.4,0-0.6,0c-0.2,0-0.3,0-0.5,0h-1.5v6.6h-3.2v-17.1
	c0.8-0.2,1.6-0.3,2.4-0.3C1029.1,323,1029.8,323,1030.5,323z M1030.7,325.7c-0.7,0-1.3,0-1.8,0.1v5.6h1.4c0.8,0,1.4,0,2-0.1
	c0.6-0.1,1.1-0.2,1.4-0.5c0.4-0.2,0.7-0.5,0.9-0.9c0.2-0.4,0.3-0.8,0.3-1.4c0-0.5-0.1-1-0.3-1.4c-0.2-0.4-0.5-0.7-0.9-0.9
	c-0.4-0.2-0.8-0.4-1.3-0.4C1031.9,325.8,1031.4,325.7,1030.7,325.7z M1040.9,334c0-1.1,0.2-2.2,0.5-3c0.3-0.9,0.8-1.6,1.4-2.2
	c0.6-0.6,1.2-1,1.9-1.3c0.7-0.3,1.5-0.5,2.2-0.5c1.8,0,3.2,0.6,4.2,1.7c1,1.1,1.5,2.8,1.5,5c0,0.2,0,0.4,0,0.6c0,0.2,0,0.4,0,0.6
	h-8.6c0.1,1,0.4,1.9,1.1,2.4c0.7,0.6,1.6,0.9,2.9,0.9c0.7,0,1.4-0.1,2-0.2c0.6-0.1,1.1-0.3,1.5-0.4l0.4,2.5
	c-0.2,0.1-0.4,0.2-0.7,0.3c-0.3,0.1-0.6,0.2-1,0.2c-0.4,0.1-0.8,0.1-1.2,0.2c-0.4,0-0.9,0.1-1.3,0.1c-1.2,0-2.2-0.2-3-0.5
	c-0.8-0.4-1.5-0.8-2.1-1.4c-0.6-0.6-1-1.3-1.2-2.1C1041,335.9,1040.9,335,1040.9,334z M1049.6,332.7c0-0.4-0.1-0.8-0.2-1.2
	c-0.1-0.4-0.3-0.7-0.5-1c-0.2-0.3-0.5-0.5-0.8-0.6c-0.3-0.2-0.7-0.2-1.2-0.2c-0.5,0-0.9,0.1-1.2,0.3c-0.3,0.2-0.7,0.4-0.9,0.7
	c-0.2,0.3-0.4,0.6-0.5,1c-0.1,0.4-0.2,0.7-0.3,1.1H1049.6z M1058.2,333.6c0,1.3,0.3,2.2,0.8,2.8c0.6,0.6,1.3,0.9,2.2,0.9
	c0.5,0,0.9-0.1,1.3-0.2c0.4-0.1,0.8-0.3,1.1-0.5v-6.8c-0.2-0.1-0.5-0.1-0.8-0.1c-0.3-0.1-0.7-0.1-1.2-0.1c-1.1,0-1.9,0.4-2.5,1.1
	C1058.5,331.5,1058.2,332.4,1058.2,333.6z M1066.7,339.2c0,2.1-0.5,3.6-1.6,4.6c-1,1-2.7,1.4-4.8,1.4c-0.8,0-1.6-0.1-2.3-0.2
	c-0.8-0.1-1.4-0.3-2.1-0.5l0.6-2.6c0.5,0.2,1.1,0.4,1.8,0.5c0.7,0.1,1.4,0.2,2.2,0.2c1.2,0,2.1-0.2,2.6-0.8s0.8-1.2,0.8-2.2v-0.5
	c-0.3,0.1-0.7,0.3-1.2,0.4c-0.5,0.2-1,0.2-1.7,0.2c-0.8,0-1.6-0.1-2.3-0.4c-0.7-0.3-1.3-0.7-1.8-1.2c-0.5-0.5-0.9-1.2-1.1-1.9
	c-0.3-0.8-0.4-1.7-0.4-2.7c0-1,0.2-1.8,0.4-2.6c0.3-0.8,0.7-1.5,1.3-2.1c0.6-0.6,1.2-1,2.1-1.3c0.8-0.3,1.7-0.5,2.7-0.5
	c1,0,1.9,0.1,2.8,0.2c0.9,0.1,1.6,0.3,2.2,0.5V339.2z M1073.6,340.5h-3v-13.1h3V340.5z M1073.9,323.6c0,0.6-0.2,1-0.6,1.4
	c-0.4,0.3-0.8,0.5-1.3,0.5c-0.5,0-1-0.2-1.3-0.5c-0.4-0.3-0.5-0.8-0.5-1.4c0-0.6,0.2-1,0.5-1.4c0.4-0.3,0.8-0.5,1.3-0.5
	c0.5,0,0.9,0.2,1.3,0.5C1073.7,322.6,1073.9,323,1073.9,323.6z M1089.2,333.9c0,1-0.2,2-0.4,2.8c-0.3,0.9-0.7,1.6-1.3,2.2
	c-0.6,0.6-1.2,1.1-2,1.4c-0.8,0.3-1.6,0.5-2.6,0.5c-0.9,0-1.8-0.2-2.5-0.5c-0.8-0.3-1.4-0.8-2-1.4c-0.5-0.6-1-1.3-1.3-2.2
	c-0.3-0.9-0.5-1.8-0.5-2.8c0-1,0.2-2,0.5-2.8c0.3-0.9,0.8-1.6,1.3-2.2c0.6-0.6,1.2-1.1,2-1.4c0.8-0.3,1.6-0.5,2.5-0.5
	c0.9,0,1.8,0.2,2.5,0.5c0.8,0.3,1.4,0.8,2,1.4c0.6,0.6,1,1.3,1.3,2.2C1089.1,332,1089.2,332.9,1089.2,333.9z M1086.2,333.9
	c0-1.3-0.3-2.3-0.8-3.1c-0.6-0.8-1.3-1.2-2.3-1.2s-1.8,0.4-2.3,1.2c-0.6,0.8-0.8,1.8-0.8,3.1c0,1.3,0.3,2.4,0.8,3.1
	c0.6,0.8,1.3,1.1,2.3,1.1s1.8-0.4,2.3-1.1C1085.9,336.3,1086.2,335.3,1086.2,333.9z M1092.4,327.8c0.6-0.2,1.3-0.3,2.3-0.5
	c0.9-0.2,2-0.2,3.1-0.2c1.1,0,2,0.1,2.7,0.4c0.7,0.3,1.3,0.7,1.7,1.2c0.4,0.5,0.7,1.1,0.9,1.9c0.2,0.7,0.3,1.5,0.3,2.4v7.4h-3v-6.9
	c0-0.7-0.1-1.3-0.2-1.8c-0.1-0.5-0.2-0.9-0.4-1.2c-0.2-0.3-0.5-0.5-0.9-0.7c-0.3-0.1-0.8-0.2-1.3-0.2c-0.4,0-0.8,0-1.2,0.1
	c-0.4,0.1-0.7,0.1-0.9,0.1v10.6h-3V327.8z M1113.2,326.8c1-0.4,1.9-0.9,2.9-1.5c1-0.6,1.8-1.3,2.6-2.1h2.1v17.3h-3v-13.3
	c-0.4,0.4-1,0.7-1.7,1c-0.7,0.3-1.3,0.6-2,0.8L1113.2,326.8z"/>
<path class="st0" d="M1030.5,415c2.5,0,4.4,0.5,5.7,1.4c1.3,0.9,2,2.3,2,4.2c0,2.4-1.2,3.9-3.5,4.8c0.3,0.4,0.7,0.9,1.1,1.4
	c0.4,0.5,0.8,1.1,1.2,1.8c0.4,0.6,0.8,1.3,1.2,2c0.4,0.7,0.7,1.3,1,2h-3.5c-0.3-0.6-0.7-1.2-1-1.8c-0.4-0.6-0.7-1.2-1.1-1.8
	c-0.4-0.6-0.7-1.1-1.1-1.6c-0.4-0.5-0.7-1-1-1.4c-0.2,0-0.4,0-0.6,0c-0.2,0-0.3,0-0.5,0h-1.5v6.6h-3.2v-17.1
	c0.8-0.2,1.6-0.3,2.4-0.3C1029.1,415,1029.8,415,1030.5,415z M1030.7,417.7c-0.7,0-1.3,0-1.8,0.1v5.6h1.4c0.8,0,1.4,0,2-0.1
	c0.6-0.1,1.1-0.2,1.4-0.5c0.4-0.2,0.7-0.5,0.9-0.9c0.2-0.4,0.3-0.8,0.3-1.4c0-0.5-0.1-1-0.3-1.4c-0.2-0.4-0.5-0.7-0.9-0.9
	c-0.4-0.2-0.8-0.4-1.3-0.4C1031.9,417.8,1031.4,417.7,1030.7,417.7z M1040.9,426c0-1.1,0.2-2.2,0.5-3c0.3-0.9,0.8-1.6,1.4-2.2
	c0.6-0.6,1.2-1,1.9-1.3c0.7-0.3,1.5-0.5,2.2-0.5c1.8,0,3.2,0.6,4.2,1.7c1,1.1,1.5,2.8,1.5,5c0,0.2,0,0.4,0,0.6c0,0.2,0,0.4,0,0.6
	h-8.6c0.1,1,0.4,1.9,1.1,2.4c0.7,0.6,1.6,0.9,2.9,0.9c0.7,0,1.4-0.1,2-0.2c0.6-0.1,1.1-0.3,1.5-0.4l0.4,2.5
	c-0.2,0.1-0.4,0.2-0.7,0.3c-0.3,0.1-0.6,0.2-1,0.2c-0.4,0.1-0.8,0.1-1.2,0.2c-0.4,0-0.9,0.1-1.3,0.1c-1.2,0-2.2-0.2-3-0.5
	c-0.8-0.4-1.5-0.8-2.1-1.4c-0.6-0.6-1-1.3-1.2-2.1C1041,427.9,1040.9,427,1040.9,426z M1049.6,424.7c0-0.4-0.1-0.8-0.2-1.2
	c-0.1-0.4-0.3-0.7-0.5-1c-0.2-0.3-0.5-0.5-0.8-0.6c-0.3-0.2-0.7-0.2-1.2-0.2c-0.5,0-0.9,0.1-1.2,0.3c-0.3,0.2-0.7,0.4-0.9,0.7
	c-0.2,0.3-0.4,0.6-0.5,1c-0.1,0.4-0.2,0.7-0.3,1.1H1049.6z M1058.2,425.6c0,1.3,0.3,2.2,0.8,2.8c0.6,0.6,1.3,0.9,2.2,0.9
	c0.5,0,0.9-0.1,1.3-0.2c0.4-0.1,0.8-0.3,1.1-0.5v-6.8c-0.2-0.1-0.5-0.1-0.8-0.1c-0.3-0.1-0.7-0.1-1.2-0.1c-1.1,0-1.9,0.4-2.5,1.1
	C1058.5,423.5,1058.2,424.4,1058.2,425.6z M1066.7,431.2c0,2.1-0.5,3.6-1.6,4.6c-1,1-2.7,1.4-4.8,1.4c-0.8,0-1.6-0.1-2.3-0.2
	c-0.8-0.1-1.4-0.3-2.1-0.5l0.6-2.6c0.5,0.2,1.1,0.4,1.8,0.5c0.7,0.1,1.4,0.2,2.2,0.2c1.2,0,2.1-0.2,2.6-0.8s0.8-1.2,0.8-2.2v-0.5
	c-0.3,0.1-0.7,0.3-1.2,0.4c-0.5,0.2-1,0.2-1.7,0.2c-0.8,0-1.6-0.1-2.3-0.4c-0.7-0.3-1.3-0.7-1.8-1.2c-0.5-0.5-0.9-1.2-1.1-1.9
	c-0.3-0.8-0.4-1.7-0.4-2.7c0-1,0.2-1.8,0.4-2.6c0.3-0.8,0.7-1.5,1.3-2.1c0.6-0.6,1.2-1,2.1-1.3c0.8-0.3,1.7-0.5,2.7-0.5
	c1,0,1.9,0.1,2.8,0.2c0.9,0.1,1.6,0.3,2.2,0.5V431.2z M1073.6,432.5h-3v-13.1h3V432.5z M1073.9,415.6c0,0.6-0.2,1-0.6,1.4
	c-0.4,0.3-0.8,0.5-1.3,0.5c-0.5,0-1-0.2-1.3-0.5c-0.4-0.3-0.5-0.8-0.5-1.4c0-0.6,0.2-1,0.5-1.4c0.4-0.3,0.8-0.5,1.3-0.5
	c0.5,0,0.9,0.2,1.3,0.5C1073.7,414.6,1073.9,415,1073.9,415.6z M1089.2,425.9c0,1-0.2,2-0.4,2.8c-0.3,0.9-0.7,1.6-1.3,2.2
	c-0.6,0.6-1.2,1.1-2,1.4c-0.8,0.3-1.6,0.5-2.6,0.5c-0.9,0-1.8-0.2-2.5-0.5c-0.8-0.3-1.4-0.8-2-1.4c-0.5-0.6-1-1.3-1.3-2.2
	c-0.3-0.9-0.5-1.8-0.5-2.8c0-1,0.2-2,0.5-2.8c0.3-0.9,0.8-1.6,1.3-2.2c0.6-0.6,1.2-1.1,2-1.4c0.8-0.3,1.6-0.5,2.5-0.5
	c0.9,0,1.8,0.2,2.5,0.5c0.8,0.3,1.4,0.8,2,1.4c0.6,0.6,1,1.3,1.3,2.2C1089.1,424,1089.2,424.9,1089.2,425.9z M1086.2,425.9
	c0-1.3-0.3-2.3-0.8-3.1c-0.6-0.8-1.3-1.2-2.3-1.2s-1.8,0.4-2.3,1.2c-0.6,0.8-0.8,1.8-0.8,3.1c0,1.3,0.3,2.4,0.8,3.1
	c0.6,0.8,1.3,1.1,2.3,1.1s1.8-0.4,2.3-1.1C1085.9,428.3,1086.2,427.3,1086.2,425.9z M1092.4,419.8c0.6-0.2,1.3-0.3,2.3-0.5
	c0.9-0.2,2-0.2,3.1-0.2c1.1,0,2,0.1,2.7,0.4c0.7,0.3,1.3,0.7,1.7,1.2c0.4,0.5,0.7,1.1,0.9,1.9c0.2,0.7,0.3,1.5,0.3,2.4v7.4h-3v-6.9
	c0-0.7-0.1-1.3-0.2-1.8c-0.1-0.5-0.2-0.9-0.4-1.2c-0.2-0.3-0.5-0.5-0.9-0.7c-0.3-0.1-0.8-0.2-1.3-0.2c-0.4,0-0.8,0-1.2,0.1
	c-0.4,0.1-0.7,0.1-0.9,0.1v10.6h-3V419.8z M1122.9,419.7c0,0.6-0.1,1.2-0.4,1.8c-0.2,0.6-0.6,1.1-1,1.7c-0.4,0.5-0.8,1.1-1.3,1.6
	c-0.5,0.5-1,1-1.5,1.5c-0.3,0.2-0.6,0.5-0.9,0.9c-0.3,0.4-0.7,0.7-0.9,1.1c-0.3,0.3-0.6,0.7-0.8,1c-0.2,0.3-0.3,0.6-0.3,0.8h7.7v2.6
	h-11c0-0.1,0-0.3,0-0.5c0-0.2,0-0.4,0-0.5c0-0.8,0.1-1.5,0.4-2.2c0.3-0.7,0.6-1.3,1-1.9c0.4-0.6,0.9-1.1,1.4-1.6
	c0.5-0.5,1-1,1.6-1.5c0.4-0.4,0.8-0.8,1.2-1.1c0.4-0.4,0.7-0.7,0.9-1.1c0.3-0.4,0.5-0.7,0.7-1.1c0.2-0.4,0.2-0.8,0.2-1.2
	c0-0.9-0.2-1.5-0.8-1.9c-0.5-0.4-1.1-0.5-1.8-0.5c-0.5,0-0.9,0.1-1.3,0.2c-0.4,0.1-0.8,0.3-1.1,0.5c-0.3,0.2-0.6,0.4-0.8,0.6
	c-0.2,0.2-0.4,0.3-0.5,0.5l-1.5-2.1c0.7-0.7,1.5-1.2,2.4-1.6c1-0.4,2-0.6,3.1-0.6c1.8,0,3.2,0.4,4.1,1.3
	C1122.5,417,1122.9,418.2,1122.9,419.7z"/>
<path class="st0" d="M1030.5,508c2.5,0,4.4,0.5,5.7,1.4c1.3,0.9,2,2.3,2,4.2c0,2.3-1.2,3.9-3.5,4.8c0.3,0.4,0.7,0.9,1.1,1.4
	s0.8,1.1,1.2,1.8c0.4,0.6,0.8,1.3,1.2,2c0.4,0.7,0.7,1.3,1,2h-3.5c-0.3-0.6-0.7-1.2-1-1.8c-0.4-0.6-0.7-1.2-1.1-1.8
	c-0.4-0.6-0.7-1.1-1.1-1.6c-0.4-0.5-0.7-1-1-1.4c-0.2,0-0.4,0-0.6,0c-0.2,0-0.3,0-0.5,0h-1.5v6.5h-3.2v-17.1
	c0.8-0.2,1.6-0.3,2.4-0.3C1029.1,508,1029.8,508,1030.5,508z M1030.7,510.7c-0.7,0-1.3,0-1.8,0.1v5.6h1.4c0.8,0,1.4,0,2-0.1
	c0.6-0.1,1.1-0.2,1.4-0.4c0.4-0.2,0.7-0.5,0.9-0.9c0.2-0.4,0.3-0.8,0.3-1.4c0-0.5-0.1-1-0.3-1.3c-0.2-0.4-0.5-0.7-0.9-0.9
	c-0.4-0.2-0.8-0.4-1.3-0.4C1031.9,510.8,1031.4,510.7,1030.7,510.7z M1040.9,519c0-1.1,0.2-2.2,0.5-3c0.3-0.9,0.8-1.6,1.4-2.2
	c0.6-0.6,1.2-1,1.9-1.3c0.7-0.3,1.5-0.5,2.2-0.5c1.8,0,3.2,0.6,4.2,1.7c1,1.1,1.5,2.8,1.5,5c0,0.2,0,0.4,0,0.6c0,0.2,0,0.4,0,0.5
	h-8.6c0.1,1.1,0.4,1.9,1.1,2.5c0.7,0.6,1.6,0.9,2.9,0.9c0.7,0,1.4-0.1,2-0.2c0.6-0.1,1.1-0.3,1.5-0.4l0.4,2.5
	c-0.2,0.1-0.4,0.2-0.7,0.3c-0.3,0.1-0.6,0.2-1,0.2c-0.4,0.1-0.8,0.2-1.2,0.2c-0.4,0-0.9,0.1-1.3,0.1c-1.2,0-2.2-0.2-3-0.5
	c-0.8-0.4-1.5-0.8-2.1-1.4c-0.6-0.6-1-1.3-1.2-2.1C1041,520.9,1040.9,520,1040.9,519z M1049.6,517.7c0-0.4-0.1-0.8-0.2-1.2
	c-0.1-0.4-0.3-0.7-0.5-1c-0.2-0.3-0.5-0.5-0.8-0.6c-0.3-0.2-0.7-0.2-1.2-0.2c-0.5,0-0.9,0.1-1.2,0.3c-0.3,0.2-0.7,0.4-0.9,0.7
	c-0.2,0.3-0.4,0.6-0.5,1c-0.1,0.4-0.2,0.7-0.3,1.1H1049.6z M1058.2,518.6c0,1.3,0.3,2.2,0.8,2.8c0.6,0.6,1.3,0.9,2.2,0.9
	c0.5,0,0.9-0.1,1.3-0.2c0.4-0.1,0.8-0.3,1.1-0.5v-6.8c-0.2,0-0.5-0.1-0.8-0.1c-0.3,0-0.7-0.1-1.2-0.1c-1.1,0-1.9,0.4-2.5,1.1
	C1058.5,516.5,1058.2,517.4,1058.2,518.6z M1066.7,524.2c0,2.1-0.5,3.6-1.6,4.6c-1,1-2.7,1.5-4.8,1.5c-0.8,0-1.6-0.1-2.3-0.2
	c-0.8-0.1-1.4-0.3-2.1-0.5l0.6-2.6c0.5,0.2,1.1,0.4,1.8,0.5c0.7,0.1,1.4,0.2,2.2,0.2c1.2,0,2.1-0.2,2.6-0.8s0.8-1.2,0.8-2.2v-0.5
	c-0.3,0.2-0.7,0.3-1.2,0.5c-0.5,0.2-1,0.2-1.7,0.2c-0.8,0-1.6-0.1-2.3-0.4c-0.7-0.3-1.3-0.7-1.8-1.2c-0.5-0.5-0.9-1.2-1.1-1.9
	c-0.3-0.8-0.4-1.7-0.4-2.7c0-1,0.2-1.8,0.4-2.6c0.3-0.8,0.7-1.5,1.3-2c0.6-0.6,1.2-1,2.1-1.3c0.8-0.3,1.7-0.5,2.7-0.5
	c1,0,1.9,0.1,2.8,0.2c0.9,0.1,1.6,0.3,2.2,0.5V524.2z M1073.6,525.5h-3v-13.1h3V525.5z M1073.9,508.6c0,0.6-0.2,1-0.6,1.4
	c-0.4,0.3-0.8,0.5-1.3,0.5c-0.5,0-1-0.2-1.3-0.5c-0.4-0.3-0.5-0.8-0.5-1.4c0-0.6,0.2-1,0.5-1.4c0.4-0.3,0.8-0.5,1.3-0.5
	c0.5,0,0.9,0.2,1.3,0.5C1073.7,507.6,1073.9,508,1073.9,508.6z M1089.2,518.9c0,1-0.2,2-0.4,2.8c-0.3,0.9-0.7,1.6-1.3,2.2
	c-0.6,0.6-1.2,1.1-2,1.4c-0.8,0.3-1.6,0.5-2.6,0.5c-0.9,0-1.8-0.2-2.5-0.5c-0.8-0.3-1.4-0.8-2-1.4c-0.5-0.6-1-1.3-1.3-2.2
	c-0.3-0.8-0.5-1.8-0.5-2.8c0-1,0.2-2,0.5-2.8c0.3-0.8,0.8-1.6,1.3-2.2c0.6-0.6,1.2-1.1,2-1.4c0.8-0.3,1.6-0.5,2.5-0.5
	c0.9,0,1.8,0.2,2.5,0.5c0.8,0.3,1.4,0.8,2,1.4c0.6,0.6,1,1.3,1.3,2.2C1089.1,517,1089.2,517.9,1089.2,518.9z M1086.2,518.9
	c0-1.3-0.3-2.3-0.8-3.1c-0.6-0.8-1.3-1.2-2.3-1.2s-1.8,0.4-2.3,1.2c-0.6,0.8-0.8,1.8-0.8,3.1c0,1.3,0.3,2.4,0.8,3.1
	c0.6,0.8,1.3,1.1,2.3,1.1s1.8-0.4,2.3-1.1C1085.9,521.3,1086.2,520.3,1086.2,518.9z M1092.4,512.8c0.6-0.2,1.3-0.3,2.3-0.5
	c0.9-0.2,2-0.2,3.1-0.2c1.1,0,2,0.2,2.7,0.5c0.7,0.3,1.3,0.7,1.7,1.2c0.4,0.5,0.7,1.1,0.9,1.9c0.2,0.7,0.3,1.5,0.3,2.4v7.4h-3v-6.9
	c0-0.7-0.1-1.3-0.2-1.8c-0.1-0.5-0.2-0.9-0.4-1.2c-0.2-0.3-0.5-0.5-0.9-0.7c-0.3-0.1-0.8-0.2-1.3-0.2c-0.4,0-0.8,0-1.2,0.1
	c-0.4,0-0.7,0.1-0.9,0.1v10.5h-3V512.8z M1119.3,511.9c-0.4,0.5-0.8,1-1.2,1.6c-0.4,0.5-0.8,1.1-1.2,1.7s-0.8,1.2-1.2,1.8
	c-0.4,0.6-0.7,1.2-1,1.9h4.6V511.9z M1122.3,508.2v10.7h1.9v2.5h-1.9v4.2h-3v-4.2h-7.6v-2.1c0.3-0.7,0.8-1.6,1.3-2.5
	c0.6-1,1.2-1.9,1.9-2.9c0.7-1,1.4-2,2.2-3s1.5-1.8,2.3-2.6H1122.3z"/>
<path class="st0" d="M402.5,508c2.5,0,4.4,0.5,5.7,1.4c1.3,0.9,2,2.3,2,4.2c0,2.3-1.2,3.9-3.5,4.8c0.3,0.4,0.7,0.9,1.1,1.4
	s0.8,1.1,1.2,1.8c0.4,0.6,0.8,1.3,1.2,2c0.4,0.7,0.7,1.3,1,2h-3.5c-0.3-0.6-0.7-1.2-1-1.8c-0.4-0.6-0.7-1.2-1.1-1.8
	c-0.4-0.6-0.7-1.1-1.1-1.6c-0.4-0.5-0.7-1-1-1.4c-0.2,0-0.4,0-0.6,0s-0.3,0-0.5,0h-1.5v6.5h-3.1v-17.1c0.8-0.2,1.6-0.3,2.5-0.3
	C401.1,508,401.8,508,402.5,508z M402.7,510.7c-0.7,0-1.3,0-1.9,0.1v5.6h1.4c0.8,0,1.4,0,2-0.1c0.6-0.1,1.1-0.2,1.5-0.4
	c0.4-0.2,0.7-0.5,0.9-0.9c0.2-0.4,0.3-0.8,0.3-1.4c0-0.5-0.1-1-0.3-1.3c-0.2-0.4-0.5-0.7-0.9-0.9c-0.4-0.2-0.8-0.4-1.3-0.4
	C403.9,510.8,403.4,510.7,402.7,510.7z M412.9,519c0-1.1,0.2-2.2,0.5-3c0.4-0.9,0.8-1.6,1.4-2.2c0.6-0.6,1.2-1,2-1.3
	c0.7-0.3,1.5-0.5,2.2-0.5c1.8,0,3.2,0.6,4.2,1.7c1,1.1,1.5,2.8,1.5,5c0,0.2,0,0.4,0,0.6c0,0.2,0,0.4,0,0.5H416
	c0.1,1.1,0.5,1.9,1.1,2.5c0.7,0.6,1.6,0.9,2.9,0.9c0.7,0,1.4-0.1,2-0.2c0.6-0.1,1.1-0.3,1.4-0.4l0.4,2.5c-0.2,0.1-0.4,0.2-0.7,0.3
	c-0.3,0.1-0.6,0.2-1,0.2c-0.4,0.1-0.8,0.2-1.2,0.2c-0.4,0-0.9,0.1-1.3,0.1c-1.1,0-2.1-0.2-3-0.5c-0.9-0.4-1.6-0.8-2.1-1.4
	c-0.5-0.6-1-1.3-1.2-2.1C413,520.9,412.9,520,412.9,519z M421.6,517.7c0-0.4-0.1-0.8-0.2-1.2c-0.1-0.4-0.3-0.7-0.5-1
	c-0.2-0.3-0.5-0.5-0.8-0.6c-0.3-0.2-0.7-0.2-1.1-0.2c-0.5,0-0.9,0.1-1.2,0.3c-0.4,0.2-0.6,0.4-0.9,0.7c-0.2,0.3-0.4,0.6-0.6,1
	c-0.1,0.4-0.2,0.7-0.3,1.1H421.6z M430.2,518.6c0,1.3,0.3,2.2,0.8,2.8c0.6,0.6,1.3,0.9,2.2,0.9c0.5,0,0.9-0.1,1.4-0.2
	c0.4-0.1,0.8-0.3,1.1-0.5v-6.8c-0.2,0-0.5-0.1-0.8-0.1c-0.3,0-0.7-0.1-1.2-0.1c-1.1,0-1.9,0.4-2.5,1.1
	C430.5,516.5,430.2,517.4,430.2,518.6z M438.7,524.2c0,2.1-0.5,3.6-1.6,4.6c-1,1-2.7,1.5-4.9,1.5c-0.8,0-1.6-0.1-2.4-0.2
	c-0.8-0.1-1.4-0.3-2-0.5l0.5-2.6c0.5,0.2,1.1,0.4,1.8,0.5c0.7,0.1,1.4,0.2,2.2,0.2c1.2,0,2.1-0.2,2.6-0.8c0.5-0.5,0.8-1.2,0.8-2.2
	v-0.5c-0.3,0.2-0.7,0.3-1.2,0.5c-0.5,0.2-1,0.2-1.7,0.2c-0.8,0-1.6-0.1-2.3-0.4c-0.7-0.3-1.3-0.7-1.8-1.2c-0.5-0.5-0.9-1.2-1.1-1.9
	c-0.3-0.8-0.4-1.7-0.4-2.7c0-1,0.1-1.8,0.4-2.6c0.3-0.8,0.7-1.5,1.3-2c0.6-0.6,1.2-1,2.1-1.3c0.8-0.3,1.7-0.5,2.7-0.5
	c1,0,1.9,0.1,2.8,0.2c0.9,0.1,1.6,0.3,2.2,0.5V524.2z M445.6,525.5h-3v-13.1h3V525.5z M445.9,508.6c0,0.6-0.2,1-0.6,1.4
	c-0.4,0.3-0.8,0.5-1.3,0.5c-0.5,0-1-0.2-1.3-0.5c-0.4-0.3-0.5-0.8-0.5-1.4c0-0.6,0.2-1,0.5-1.4c0.4-0.3,0.8-0.5,1.3-0.5
	c0.5,0,0.9,0.2,1.3,0.5C445.7,507.6,445.9,508,445.9,508.6z M461.3,518.9c0,1-0.2,2-0.5,2.8c-0.3,0.9-0.7,1.6-1.3,2.2
	c-0.6,0.6-1.2,1.1-2,1.4c-0.8,0.3-1.6,0.5-2.6,0.5c-0.9,0-1.8-0.2-2.5-0.5s-1.4-0.8-2-1.4c-0.5-0.6-1-1.3-1.3-2.2
	c-0.3-0.8-0.5-1.8-0.5-2.8c0-1,0.1-2,0.5-2.8c0.3-0.8,0.8-1.6,1.3-2.2c0.6-0.6,1.2-1.1,2-1.4c0.8-0.3,1.6-0.5,2.5-0.5
	c0.9,0,1.8,0.2,2.5,0.5c0.8,0.3,1.4,0.8,2,1.4c0.5,0.6,1,1.3,1.3,2.2C461.1,517,461.3,517.9,461.3,518.9z M458.2,518.9
	c0-1.3-0.3-2.3-0.9-3.1c-0.5-0.8-1.3-1.2-2.3-1.2s-1.8,0.4-2.3,1.2c-0.6,0.8-0.8,1.8-0.8,3.1c0,1.3,0.3,2.4,0.8,3.1
	c0.6,0.8,1.3,1.1,2.3,1.1s1.8-0.4,2.3-1.1C457.9,521.3,458.2,520.3,458.2,518.9z M464.4,512.8c0.6-0.2,1.3-0.3,2.3-0.5
	c0.9-0.2,2-0.2,3.1-0.2c1.1,0,2,0.2,2.7,0.5c0.7,0.3,1.3,0.7,1.7,1.2c0.4,0.5,0.7,1.1,0.9,1.9c0.2,0.7,0.3,1.5,0.3,2.4v7.4h-3v-6.9
	c0-0.7-0.1-1.3-0.1-1.8c-0.1-0.5-0.2-0.9-0.5-1.2c-0.2-0.3-0.5-0.5-0.9-0.7c-0.4-0.1-0.8-0.2-1.3-0.2c-0.4,0-0.8,0-1.2,0.1
	c-0.4,0-0.7,0.1-0.9,0.1v10.5h-3V512.8z M488.8,525.9c-0.5,0-0.9,0-1.4-0.1c-0.5,0-0.9-0.1-1.4-0.2c-0.4-0.1-0.8-0.2-1.1-0.3
	c-0.4-0.1-0.6-0.2-0.8-0.3l0.6-2.6c0.4,0.2,0.9,0.4,1.5,0.6c0.7,0.2,1.5,0.3,2.5,0.3c1.3,0,2.3-0.2,2.9-0.8c0.6-0.5,0.9-1.2,0.9-2
	c0-0.6-0.1-1-0.4-1.4c-0.2-0.4-0.5-0.7-0.9-0.9c-0.4-0.2-0.8-0.4-1.4-0.5c-0.5-0.1-1-0.1-1.6-0.1h-1v-2.5h1.2c0.4,0,0.8,0,1.1-0.1
	c0.4-0.1,0.8-0.2,1.1-0.4c0.3-0.2,0.6-0.5,0.8-0.8c0.2-0.3,0.3-0.7,0.3-1.2c0-0.4-0.1-0.7-0.2-1c-0.2-0.3-0.4-0.5-0.6-0.7
	c-0.2-0.2-0.5-0.3-0.8-0.4c-0.3-0.1-0.6-0.1-1-0.1c-0.8,0-1.4,0.1-2,0.3c-0.6,0.2-1.1,0.5-1.5,0.8l-1.1-2.2c0.2-0.1,0.5-0.3,0.9-0.5
	c0.3-0.2,0.7-0.3,1.1-0.5c0.4-0.1,0.9-0.3,1.3-0.4c0.5-0.1,1-0.1,1.5-0.1c1,0,1.8,0.1,2.5,0.4s1.3,0.6,1.7,1c0.5,0.4,0.8,0.9,1,1.5
	c0.2,0.6,0.4,1.2,0.4,1.9c0,0.8-0.2,1.5-0.7,2.1c-0.4,0.6-1,1.1-1.7,1.5c0.9,0.3,1.6,0.8,2.2,1.6c0.6,0.7,0.9,1.7,0.9,2.8
	c0,0.8-0.1,1.5-0.4,2.1c-0.3,0.7-0.7,1.2-1.2,1.7c-0.6,0.5-1.2,0.8-2.1,1.1C491,525.7,490,525.9,488.8,525.9z"/>
<path class="st0" d="M1030.5,641c2.5,0,4.4,0.5,5.7,1.4c1.3,0.9,2,2.3,2,4.2c0,2.3-1.2,3.9-3.5,4.8c0.3,0.4,0.7,0.9,1.1,1.4
	s0.8,1.1,1.2,1.8c0.4,0.6,0.8,1.3,1.2,2c0.4,0.7,0.7,1.3,1,2h-3.5c-0.3-0.6-0.7-1.2-1-1.8c-0.4-0.6-0.7-1.2-1.1-1.8
	c-0.4-0.6-0.7-1.1-1.1-1.6c-0.4-0.5-0.7-1-1-1.4c-0.2,0-0.4,0-0.6,0c-0.2,0-0.3,0-0.5,0h-1.5v6.5h-3.2v-17.1
	c0.8-0.2,1.6-0.3,2.4-0.3C1029.1,641,1029.8,641,1030.5,641z M1030.7,643.7c-0.7,0-1.3,0-1.8,0.1v5.6h1.4c0.8,0,1.4,0,2-0.1
	c0.6-0.1,1.1-0.2,1.4-0.4c0.4-0.2,0.7-0.5,0.9-0.9c0.2-0.4,0.3-0.8,0.3-1.4c0-0.5-0.1-1-0.3-1.3c-0.2-0.4-0.5-0.7-0.9-0.9
	c-0.4-0.2-0.8-0.4-1.3-0.5C1031.9,643.8,1031.4,643.7,1030.7,643.7z M1040.9,652c0-1.1,0.2-2.2,0.5-3c0.3-0.9,0.8-1.6,1.4-2.2
	c0.6-0.6,1.2-1,1.9-1.3c0.7-0.3,1.5-0.5,2.2-0.5c1.8,0,3.2,0.6,4.2,1.7c1,1.1,1.5,2.8,1.5,5c0,0.2,0,0.4,0,0.6c0,0.2,0,0.4,0,0.5
	h-8.6c0.1,1.1,0.4,1.9,1.1,2.5c0.7,0.6,1.6,0.9,2.9,0.9c0.7,0,1.4-0.1,2-0.2c0.6-0.1,1.1-0.3,1.5-0.4l0.4,2.5
	c-0.2,0.1-0.4,0.2-0.7,0.3c-0.3,0.1-0.6,0.2-1,0.2c-0.4,0.1-0.8,0.2-1.2,0.2c-0.4,0-0.9,0.1-1.3,0.1c-1.2,0-2.2-0.2-3-0.5
	c-0.8-0.4-1.5-0.8-2.1-1.4c-0.6-0.6-1-1.3-1.2-2.1C1041,653.9,1040.9,653,1040.9,652z M1049.6,650.7c0-0.4-0.1-0.8-0.2-1.2
	c-0.1-0.4-0.3-0.7-0.5-1c-0.2-0.3-0.5-0.5-0.8-0.6c-0.3-0.2-0.7-0.2-1.2-0.2c-0.5,0-0.9,0.1-1.2,0.3c-0.3,0.2-0.7,0.4-0.9,0.7
	c-0.2,0.3-0.4,0.6-0.5,1c-0.1,0.4-0.2,0.7-0.3,1.1H1049.6z M1058.2,651.6c0,1.3,0.3,2.2,0.8,2.8c0.6,0.6,1.3,0.9,2.2,0.9
	c0.5,0,0.9-0.1,1.3-0.2c0.4-0.1,0.8-0.3,1.1-0.5v-6.8c-0.2,0-0.5-0.1-0.8-0.1c-0.3,0-0.7-0.1-1.2-0.1c-1.1,0-1.9,0.4-2.5,1.1
	C1058.5,649.5,1058.2,650.4,1058.2,651.6z M1066.7,657.2c0,2.1-0.5,3.6-1.6,4.6c-1,1-2.7,1.5-4.8,1.5c-0.8,0-1.6-0.1-2.3-0.2
	c-0.8-0.1-1.4-0.3-2.1-0.5l0.6-2.6c0.5,0.2,1.1,0.4,1.8,0.5c0.7,0.1,1.4,0.2,2.2,0.2c1.2,0,2.1-0.2,2.6-0.8s0.8-1.2,0.8-2.2v-0.5
	c-0.3,0.2-0.7,0.3-1.2,0.5c-0.5,0.2-1,0.2-1.7,0.2c-0.8,0-1.6-0.1-2.3-0.4c-0.7-0.3-1.3-0.7-1.8-1.2c-0.5-0.5-0.9-1.2-1.1-1.9
	c-0.3-0.8-0.4-1.7-0.4-2.7c0-1,0.2-1.8,0.4-2.6c0.3-0.8,0.7-1.5,1.3-2c0.6-0.6,1.2-1,2.1-1.3c0.8-0.3,1.7-0.5,2.7-0.5
	c1,0,1.9,0.1,2.8,0.2c0.9,0.1,1.6,0.3,2.2,0.5V657.2z M1073.6,658.5h-3v-13.1h3V658.5z M1073.9,641.6c0,0.6-0.2,1-0.6,1.4
	c-0.4,0.3-0.8,0.5-1.3,0.5c-0.5,0-1-0.2-1.3-0.5c-0.4-0.3-0.5-0.8-0.5-1.4c0-0.6,0.2-1,0.5-1.4c0.4-0.3,0.8-0.5,1.3-0.5
	c0.5,0,0.9,0.2,1.3,0.5C1073.7,640.6,1073.9,641,1073.9,641.6z M1089.2,651.9c0,1-0.2,2-0.4,2.8c-0.3,0.9-0.7,1.6-1.3,2.2
	c-0.6,0.6-1.2,1.1-2,1.4c-0.8,0.3-1.6,0.5-2.6,0.5c-0.9,0-1.8-0.2-2.5-0.5c-0.8-0.3-1.4-0.8-2-1.4c-0.5-0.6-1-1.3-1.3-2.2
	c-0.3-0.8-0.5-1.8-0.5-2.8c0-1,0.2-2,0.5-2.8c0.3-0.8,0.8-1.6,1.3-2.2c0.6-0.6,1.2-1.1,2-1.4c0.8-0.3,1.6-0.5,2.5-0.5
	c0.9,0,1.8,0.2,2.5,0.5c0.8,0.3,1.4,0.8,2,1.4c0.6,0.6,1,1.3,1.3,2.2C1089.1,650,1089.2,650.9,1089.2,651.9z M1086.2,651.9
	c0-1.3-0.3-2.3-0.8-3.1c-0.6-0.8-1.3-1.2-2.3-1.2s-1.8,0.4-2.3,1.2c-0.6,0.8-0.8,1.8-0.8,3.1c0,1.3,0.3,2.4,0.8,3.1
	c0.6,0.8,1.3,1.1,2.3,1.1s1.8-0.4,2.3-1.1C1085.9,654.3,1086.2,653.3,1086.2,651.9z M1092.4,645.8c0.6-0.2,1.3-0.3,2.3-0.5
	c0.9-0.2,2-0.2,3.1-0.2c1.1,0,2,0.2,2.7,0.5c0.7,0.3,1.3,0.7,1.7,1.2c0.4,0.5,0.7,1.1,0.9,1.9c0.2,0.7,0.3,1.5,0.3,2.4v7.4h-3v-6.9
	c0-0.7-0.1-1.3-0.2-1.8c-0.1-0.5-0.2-0.9-0.4-1.2c-0.2-0.3-0.5-0.5-0.9-0.7c-0.3-0.1-0.8-0.2-1.3-0.2c-0.4,0-0.8,0-1.2,0.1
	c-0.4,0-0.7,0.1-0.9,0.1v10.5h-3V645.8z M1112.8,645.8c0.6-0.2,1.3-0.3,2.3-0.5c0.9-0.2,2-0.2,3.1-0.2c1.1,0,2,0.2,2.7,0.5
	c0.7,0.3,1.3,0.7,1.7,1.2c0.4,0.5,0.7,1.1,0.9,1.9c0.2,0.7,0.3,1.5,0.3,2.4v7.4h-3v-6.9c0-0.7,0-1.3-0.2-1.8
	c-0.1-0.5-0.2-0.9-0.4-1.2c-0.2-0.3-0.5-0.5-0.8-0.7c-0.3-0.1-0.8-0.2-1.3-0.2c-0.4,0-0.8,0-1.2,0.1c-0.4,0-0.7,0.1-0.9,0.1v10.5h-3
	V645.8z"/>
<path class="st0" d="M110,588.5c3.3,0,6-2.7,6-6c0-3.3-2.7-6-6-6s-6,2.7-6,6C104,585.8,106.7,588.5,110,588.5z"/>
<path class="st0" d="M133,588.5c3.3,0,6-2.7,6-6c0-3.3-2.7-6-6-6s-6,2.7-6,6C127,585.8,129.7,588.5,133,588.5z"/>
<path class="st0" d="M156,588.5c3.3,0,6-2.7,6-6c0-3.3-2.7-6-6-6s-6,2.7-6,6C150,585.8,152.7,588.5,156,588.5z"/>
<path class="st0" d="M425,588.5c3.3,0,6-2.7,6-6c0-3.3-2.7-6-6-6s-6,2.7-6,6C419,585.8,421.7,588.5,425,588.5z"/>
<path class="st0" d="M448,588.5c3.3,0,6-2.7,6-6c0-3.3-2.7-6-6-6s-6,2.7-6,6C442,585.8,444.7,588.5,448,588.5z"/>
<path class="st0" d="M471,588.5c3.3,0,6-2.7,6-6c0-3.3-2.7-6-6-6s-6,2.7-6,6C465,585.8,467.7,588.5,471,588.5z"/>
<path class="st0" d="M736,588.5c3.3,0,6-2.7,6-6c0-3.3-2.7-6-6-6s-6,2.7-6,6C730,585.8,732.7,588.5,736,588.5z"/>
<path class="st0" d="M759,588.5c3.3,0,6-2.7,6-6c0-3.3-2.7-6-6-6s-6,2.7-6,6C753,585.8,755.7,588.5,759,588.5z"/>
<path class="st0" d="M782,588.5c3.3,0,6-2.7,6-6c0-3.3-2.7-6-6-6s-6,2.7-6,6C776,585.8,778.7,588.5,782,588.5z"/>
<path class="st0" d="M1051,588.5c3.3,0,6-2.7,6-6c0-3.3-2.7-6-6-6s-6,2.7-6,6C1045,585.8,1047.7,588.5,1051,588.5z"/>
<path class="st0" d="M1074,588.5c3.3,0,6-2.7,6-6c0-3.3-2.7-6-6-6s-6,2.7-6,6C1068,585.8,1070.7,588.5,1074,588.5z"/>
<path class="st0" d="M1097,588.5c3.3,0,6-2.7,6-6c0-3.3-2.7-6-6-6s-6,2.7-6,6C1091,585.8,1093.7,588.5,1097,588.5z"/>
<path class="st0" d="M274.8,513.3c-14.7,0-23.6-1.1-23.9-1.1l0.3-2c0.7,0.1,70.8,8.5,141.5-22.6c12.5-5.2,26.5-11.1,41.1-17.2
	c34.2-14.4,72.9-30.6,104.9-43.8c22.4-8.2,53.3-10.8,75.3-11.5c23.8-0.8,42.5,0.4,42.7,0.4l-0.1,2c-0.2,0-18.9-1.2-42.6-0.4
	c-21.8,0.7-52.5,3.2-74.6,11.4c-31.9,13.1-70.7,29.4-104.8,43.7c-14.7,6.2-28.6,12-41.1,17.2C347.4,509.7,301.6,513.3,274.8,513.3z"
	/>
<path class="st0" d="M132.3,162.3c0.4,0.4,1,0.4,1.4,0l6.4-6.4c0.4-0.4,0.4-1,0-1.4c-0.4-0.4-1-0.4-1.4,0l-5.7,5.7l-5.7-5.7
	c-0.4-0.4-1-0.4-1.4,0c-0.4,0.4-0.4,1,0,1.4L132.3,162.3z M132,94.6v67h2v-67H132z"/>
<path class="st0" d="M133.7,93.9c-0.4-0.4-1-0.4-1.4,0l-6.4,6.4c-0.4,0.4-0.4,1,0,1.4c0.4,0.4,1,0.4,1.4,0L133,96l5.7,5.7
	c0.4,0.4,1,0.4,1.4,0c0.4-0.4,0.4-1,0-1.4L133.7,93.9z M134,161.6v-67h-2v67H134z"/>
<path class="st0" d="M443.8,162.3c0.4,0.4,1,0.4,1.4,0l6.4-6.4c0.4-0.4,0.4-1,0-1.4c-0.4-0.4-1-0.4-1.4,0l-5.7,5.7l-5.7-5.7
	c-0.4-0.4-1-0.4-1.4,0c-0.4,0.4-0.4,1,0,1.4L443.8,162.3z M443.5,94.6v67h2v-67H443.5z"/>
<path class="st0" d="M445.2,93.9c-0.4-0.4-1-0.4-1.4,0l-6.4,6.4c-0.4,0.4-0.4,1,0,1.4c0.4,0.4,1,0.4,1.4,0l5.7-5.7l5.7,5.7
	c0.4,0.4,1,0.4,1.4,0c0.4-0.4,0.4-1,0-1.4L445.2,93.9z M445.5,161.6v-67h-2v67H445.5z"/>
<path class="st0" d="M752.3,164.2c0.4,0.4,1,0.4,1.4,0l6.4-6.4c0.4-0.4,0.4-1,0-1.4c-0.4-0.4-1-0.4-1.4,0l-5.7,5.7l-5.7-5.7
	c-0.4-0.4-1-0.4-1.4,0c-0.4,0.4-0.4,1,0,1.4L752.3,164.2z M752,96.5v67h2v-67H752z"/>
<path class="st0" d="M753.7,95.8c-0.4-0.4-1-0.4-1.4,0l-6.4,6.4c-0.4,0.4-0.4,1,0,1.4c0.4,0.4,1,0.4,1.4,0l5.7-5.7l5.7,5.7
	c0.4,0.4,1,0.4,1.4,0c0.4-0.4,0.4-1,0-1.4L753.7,95.8z M754,163.5v-67h-2v67H754z"/>
<path class="st0" d="M1079.3,164.2c0.4,0.4,1,0.4,1.4,0l6.4-6.4c0.4-0.4,0.4-1,0-1.4c-0.4-0.4-1-0.4-1.4,0l-5.7,5.7l-5.7-5.7
	c-0.4-0.4-1-0.4-1.4,0c-0.4,0.4-0.4,1,0,1.4L1079.3,164.2z M1079,96.5v67h2v-67H1079z"/>
<path class="st0" d="M1080.7,95.8c-0.4-0.4-1-0.4-1.4,0l-6.4,6.4c-0.4,0.4-0.4,1,0,1.4c0.4,0.4,1,0.4,1.4,0l5.7-5.7l5.7,5.7
	c0.4,0.4,1,0.4,1.4,0c0.4-0.4,0.4-1,0-1.4L1080.7,95.8z M1081,163.5v-67h-2v67H1081z"/>
<path class="st10" d="M2,0h1202c1.1,0,2,0.9,2,2v80.1c0,1.1-0.9,2-2,2H2c-1.1,0-2-0.9-2-2V2C0,0.9,0.9,0,2,0z"/>
<path class="st0" d="M549.8,58.4c-3.7,0-6.6-1-8.5-3.1c-1.9-2.1-2.9-5-2.9-8.8c0-1.9,0.3-3.6,0.9-5c0.6-1.5,1.4-2.8,2.4-3.8
	c1-1,2.3-1.8,3.7-2.3c1.4-0.5,3-0.8,4.7-0.8c1,0,1.8,0.1,2.6,0.2c0.8,0.1,1.5,0.3,2.1,0.5c0.6,0.2,1.1,0.4,1.5,0.6
	c0.4,0.2,0.7,0.4,0.9,0.5l-1.5,4.2c-0.7-0.4-1.5-0.7-2.5-1c-0.9-0.3-2-0.4-3.2-0.4c-0.8,0-1.6,0.1-2.3,0.4c-0.7,0.3-1.4,0.7-2,1.3
	c-0.6,0.6-1,1.3-1.4,2.2s-0.5,2-0.5,3.4c0,1.1,0.1,2,0.3,3c0.2,0.9,0.6,1.7,1.1,2.3c0.5,0.7,1.2,1.2,2,1.6c0.8,0.4,1.8,0.6,3,0.6
	c0.7,0,1.4,0,2-0.1s1.1-0.2,1.6-0.3c0.5-0.1,0.9-0.3,1.2-0.4c0.4-0.2,0.7-0.3,1-0.4l1.4,4.1c-0.7,0.4-1.7,0.8-3.1,1.2
	C553,58.2,551.5,58.4,549.8,58.4z M567.3,58.3c-1.4,0-2.6-0.2-3.5-0.5c-0.9-0.3-1.6-0.7-2.1-1.2c-0.5-0.5-0.9-1.2-1.1-1.9
	c-0.2-0.7-0.3-1.6-0.3-2.5V33.1l4.9-0.8v18.9c0,0.4,0,0.8,0.1,1.2c0.1,0.4,0.2,0.6,0.4,0.9c0.2,0.2,0.5,0.4,0.8,0.6
	c0.4,0.2,0.8,0.3,1.4,0.3L567.3,58.3z M575.8,57.9h-4.9V40.6h4.9V57.9z M576.2,35.6c0,0.9-0.3,1.6-0.9,2.1c-0.6,0.5-1.3,0.8-2,0.8
	s-1.5-0.3-2.1-0.8c-0.6-0.5-0.9-1.2-0.9-2.1s0.3-1.6,0.9-2.1c0.6-0.5,1.3-0.8,2.1-0.8s1.5,0.3,2,0.8C575.9,34,576.2,34.7,576.2,35.6
	z M579.6,49.4c0-1.5,0.2-2.9,0.7-4c0.5-1.2,1.1-2.1,1.9-2.9c0.8-0.8,1.7-1.4,2.6-1.7c1-0.4,2-0.6,3.1-0.6c2.5,0,4.4,0.8,5.8,2.3
	c1.4,1.5,2.1,3.7,2.1,6.6c0,0.3,0,0.6,0,1c0,0.3,0,0.6-0.1,0.9h-11.2c0.1,1,0.6,1.8,1.4,2.4c0.8,0.6,2,0.9,3.4,0.9
	c0.9,0,1.8-0.1,2.6-0.2c0.9-0.2,1.6-0.4,2.1-0.6l0.7,4c-0.3,0.1-0.6,0.3-1.1,0.4s-0.9,0.2-1.5,0.3c-0.5,0.1-1.1,0.2-1.7,0.3
	c-0.6,0.1-1.2,0.1-1.8,0.1c-1.6,0-2.9-0.2-4.1-0.7c-1.1-0.5-2.1-1.1-2.9-1.9c-0.7-0.8-1.3-1.8-1.7-2.9
	C579.7,51.9,579.6,50.7,579.6,49.4z M591.1,47.5c0-0.4-0.1-0.8-0.2-1.2c-0.1-0.4-0.3-0.7-0.6-1.1c-0.2-0.3-0.6-0.6-1-0.8
	c-0.4-0.2-0.8-0.3-1.4-0.3c-0.5,0-1,0.1-1.4,0.3c-0.4,0.2-0.7,0.4-1,0.7c-0.3,0.3-0.5,0.7-0.6,1.1c-0.1,0.4-0.2,0.8-0.3,1.2H591.1z
	 M599.7,41.2c0.8-0.2,1.9-0.5,3.2-0.7c1.3-0.2,2.7-0.3,4.2-0.3c1.5,0,2.7,0.2,3.7,0.6c1,0.4,1.8,0.9,2.3,1.6c0.6,0.7,1,1.5,1.2,2.5
	c0.2,1,0.4,2,0.4,3.2v9.8h-4.9v-9.2c0-1.6-0.2-2.7-0.6-3.4c-0.4-0.7-1.2-1-2.3-1c-0.4,0-0.7,0-1.1,0.1c-0.4,0-0.7,0.1-1.1,0.1v13.4
	h-4.9V41.2z M618.9,36.3l4.9-0.8v5.1h5.9v4.1h-5.9v6.1c0,1,0.2,1.9,0.5,2.5c0.4,0.6,1.1,0.9,2.2,0.9c0.5,0,1.1,0,1.6-0.1
	c0.6-0.1,1.1-0.3,1.6-0.4l0.7,3.8c-0.6,0.2-1.3,0.5-2,0.6c-0.7,0.2-1.6,0.3-2.7,0.3c-1.3,0-2.5-0.2-3.3-0.5
	c-0.9-0.4-1.6-0.9-2.1-1.5c-0.5-0.7-0.9-1.5-1.1-2.4c-0.2-0.9-0.3-1.9-0.3-3.1V36.3z M638.7,54.4c0.9,0,1.5-0.1,1.9-0.3
	c0.4-0.2,0.6-0.5,0.6-1c0-0.4-0.2-0.7-0.7-1c-0.5-0.3-1.2-0.6-2.2-1c-0.8-0.3-1.5-0.6-2.1-0.9c-0.6-0.3-1.1-0.7-1.6-1.1
	c-0.4-0.4-0.8-1-1-1.6c-0.2-0.6-0.4-1.3-0.4-2.1c0-1.6,0.6-2.9,1.8-3.9c1.2-0.9,2.9-1.4,5-1.4c1.1,0,2.1,0.1,3,0.3
	c1,0.2,1.7,0.4,2.3,0.6l-0.9,3.8c-0.6-0.2-1.2-0.4-1.9-0.5c-0.7-0.2-1.4-0.2-2.2-0.2c-1.5,0-2.3,0.4-2.3,1.3c0,0.2,0,0.4,0.1,0.5
	c0.1,0.2,0.2,0.3,0.4,0.5c0.2,0.1,0.5,0.3,0.8,0.5c0.4,0.2,0.8,0.3,1.3,0.5c1.1,0.4,2,0.8,2.7,1.2c0.7,0.4,1.3,0.8,1.6,1.3
	c0.4,0.4,0.7,0.9,0.9,1.5c0.2,0.5,0.3,1.2,0.3,1.9c0,1.7-0.6,3-1.9,3.9c-1.3,0.9-3.1,1.3-5.4,1.3c-1.5,0-2.8-0.1-3.9-0.4
	c-1-0.3-1.7-0.5-2.1-0.7l0.8-4c0.8,0.3,1.7,0.6,2.6,0.8C637,54.3,637.9,54.4,638.7,54.4z"/>
</svg>
