<svg xmlns="http://www.w3.org/2000/svg" width="198.5" height="77.208" viewBox="0 0 198.5 77.208">
  <g id="组_3563" data-name="组 3563" transform="translate(-1227.37 -847.8)">
    <path id="路径_11965" data-name="路径 11965" d="M1260.8,847.8l-33.432,19.3v38.6l33.432,19.3,33.431-19.3V867.1Zm-.019,25.7v38.617l-11.1-6.4V879.912l-11.105,6.411V873.506l22.2-12.819,11.1,6.408Zm22.307,25.768-11.146,6.434V879.977l11.146-6.44Z" transform="translate(0)" fill="#fff"/>
    <g id="组_3547" data-name="组 3547" transform="translate(1305.38 867.03)">
      <path id="路径_11966" data-name="路径 11966" d="M1420.274,929.268h-7.98V897.137h-11.756v-6.65h31.067v6.65h-11.331Z" transform="translate(-1400.538 -890.487)" fill="#fff"/>
      <path id="路径_11967" data-name="路径 11967" d="M1488.756,897.137h-7.448v-6.65h7.448Zm0,32.131h-7.448V900.541h7.448Z" transform="translate(-1444.922 -890.487)" fill="#fff"/>
      <path id="路径_11968" data-name="路径 11968" d="M1523.531,929.268h-7.979V890.487h7.979V907.51l15.161-17.023h9.416l-15.481,16.7,17.129,22.077h-9.522l-12.714-17.13-3.99,4.149Z" transform="translate(-1463.739 -890.487)" fill="#fff"/>
      <path id="路径_11969" data-name="路径 11969" d="M1607.519,929.268l-13.087-38.781h8.032l8.619,29.205,8.458-29.205h8.033l-13.3,38.781Z" transform="translate(-1507.085 -890.487)" fill="#fff"/>
    </g>
  </g>
</svg>
